<?xml version="1.0" encoding="UTF-8"?>
<svg id="Layer_2" data-name="Layer 2" xmlns="http://www.w3.org/2000/svg" viewBox="0 0 345.52 392.83">
  <defs>
    <style>
      .cls-1 {
        fill: #bfd842;
      }

      .cls-1, .cls-2, .cls-3, .cls-4 {
        stroke-width: 0px;
      }

      .cls-2 {
        fill: #009797;
      }

      .cls-3 {
        fill: #1f6471;
      }

      .cls-4 {
        fill: #034963;
      }

      .cls-5 {
        fill: none;
        stroke: #bfd842;
        stroke-miterlimit: 10;
        stroke-width: 2px;
      }
    </style>
  </defs>
  <g id="Layer_1-2" data-name="Layer 1">
    <g>
      <polygon class="cls-4" points="17.16 110.56 17.16 290.29 172.81 380.15 328.46 290.29 328.46 110.56 172.81 20.7 17.16 110.56"/>
      <polygon class="cls-3" points="60.79 135.75 60.79 265.1 172.81 329.78 284.83 265.1 284.83 135.75 172.81 71.07 60.79 135.75"/>
      <polygon class="cls-2" points="108.18 163.11 108.18 237.74 172.81 275.05 237.44 237.74 237.44 163.11 172.81 125.8 108.18 163.11"/>
      <g>
        <path class="cls-1" d="M342.18,118.96c-63.36-33.43-126.22-69.69-186.84-107.87,63.38,33.41,126.21,69.71,186.84,107.87h0Z"/>
        <path class="cls-1" d="M188.02,390.52c-23.68-13.16-71.14-39.75-94.71-53.06C61.63,319.94,30.22,301.94,0,281.97c0,0,.2-.35.2-.35,8.11,4.05,16.14,8.23,24.1,12.52,23.99,12.71,47.32,26.59,70.6,40.54,23.28,13.73,70.12,41.59,93.31,55.49,0,0-.2.35-.2.35h0Z"/>
        <path class="cls-1" d="M180.46,15.7c-22.27,13.37-67.08,40.05-89.43,53.25C61.31,86.88,31.31,104.34.2,119.78c0,0-.2-.35-.2-.35,7.24-4.81,14.55-9.49,21.93-14.05,22.04-13.86,44.74-26.57,67.5-39.19,22.57-12.74,68.17-38.25,90.83-50.82,0,0,.2.35.2.35h0Z"/>
        <path class="cls-1" d="M326.59,84.63c2.74,73.54,2.76,148.08,0,221.62-2.76-73.54-2.74-148.08,0-221.62h0Z"/>
        <path class="cls-1" d="M15.29,98.24c2.74,67.52,2.76,135.99,0,203.51-2.76-67.52-2.74-135.99,0-203.51h0Z"/>
        <path class="cls-1" d="M345.52,279.63c-63.69,39.93-129.63,78.02-196.07,113.2,63.68-39.95,129.64-78.01,196.07-113.2h0Z"/>
        <polygon class="cls-5" points="58.92 135.32 58.92 264.67 170.94 329.34 282.96 264.67 282.96 135.32 170.94 70.64 58.92 135.32"/>
        <polygon class="cls-5" points="106.31 162.68 106.31 237.31 170.94 274.62 235.57 237.31 235.57 162.68 170.94 125.37 106.31 162.68"/>
        <path class="cls-1" d="M3.28,296.62c50.42-29.53,105.51-63.75,156.85-91.17,3.58-1.86,7.13-3.77,10.74-5.58l.15.26c-3.38,2.22-6.81,4.34-10.21,6.51-23.86,14.99-48.45,29.1-73.06,42.78-20.94,11.52-63.7,36.6-84.47,47.21h0Z"/>
        <path class="cls-1" d="M171.09,0c.36,60.39,2.46,127.37.54,187.49-.18,4.17-.3,8.33-.54,12.5,0,0-.3,0-.3,0-.23-4.17-.35-8.33-.53-12.5-1.05-29.1-.98-58.4-.51-87.5.49-24.7.15-75.9,1.35-100h0Z"/>
        <path class="cls-1" d="M336.83,295.94c-50.29-28.62-106.93-58.9-155.86-89.37-3.37-2.15-6.76-4.26-10.11-6.45,0,0,.15-.26.15-.26,3.57,1.8,7.09,3.69,10.64,5.53,24.68,13.04,48.95,27.13,72.87,41.47,20.25,12.25,62.94,36.51,82.31,49.08h0Z"/>
      </g>
    </g>
  </g>
</svg>