<?xml version="1.0" encoding="UTF-8"?>
<svg id="Layer_2" data-name="Layer 2" xmlns="http://www.w3.org/2000/svg" viewBox="0 0 345.52 392.84">
  <defs>
    <style>
      .cls-1 {
        fill: none;
        stroke: #bfd842;
        stroke-miterlimit: 10;
        stroke-width: 2px;
      }

      .cls-2 {
        fill: #bfd842;
        stroke-width: 0px;
      }
    </style>
  </defs>
  <g id="Layer_2-2" data-name="Layer 2">
    <g id="Layer_1-2" data-name="Layer 1-2">
      <g>
        <path class="cls-2" d="M342.18,118.97c-63.36-33.43-126.22-69.69-186.84-107.87,63.38,33.41,126.21,69.71,186.84,107.87h0Z"/>
        <path class="cls-2" d="M188.02,390.53c-23.68-13.16-71.14-39.75-94.71-53.06-31.68-17.52-63.09-35.52-93.31-55.49l.2-.35c8.11,4.05,16.14,8.23,24.1,12.52,23.99,12.71,47.32,26.59,70.6,40.54,23.28,13.73,70.12,41.59,93.31,55.49l-.2.35h.01Z"/>
        <path class="cls-2" d="M180.46,15.71c-22.27,13.37-67.08,40.05-89.43,53.25C61.31,86.89,31.31,104.35.2,119.79l-.2-.35c7.24-4.81,14.55-9.49,21.93-14.05,22.04-13.86,44.74-26.57,67.5-39.19,22.57-12.74,68.17-38.25,90.83-50.82l.2.35h0v-.02Z"/>
        <path class="cls-2" d="M326.59,84.64c2.74,73.54,2.76,148.08,0,221.62-2.76-73.54-2.74-148.08,0-221.62h0Z"/>
        <path class="cls-2" d="M15.29,98.25c2.74,67.52,2.76,135.99,0,203.51-2.76-67.52-2.74-135.99,0-203.51h0Z"/>
        <path class="cls-2" d="M345.52,279.64c-63.69,39.93-129.63,78.02-196.07,113.2,63.68-39.95,129.64-78.01,196.07-113.2h0Z"/>
        <polygon class="cls-1" points="58.92 135.33 58.92 264.68 170.94 329.35 282.96 264.68 282.96 135.33 170.94 70.65 58.92 135.33"/>
        <polygon class="cls-1" points="106.31 162.69 106.31 237.32 170.94 274.63 235.57 237.32 235.57 162.69 170.94 125.38 106.31 162.69"/>
        <path class="cls-2" d="M3.28,296.63c50.42-29.53,105.51-63.75,156.85-91.17,3.58-1.86,7.14-3.77,10.74-5.58l.15.26c-3.38,2.22-6.81,4.34-10.21,6.51-23.86,14.99-48.45,29.1-73.06,42.78-20.94,11.52-63.7,36.6-84.47,47.21h0Z"/>
        <path class="cls-2" d="M171.09,0c.36,60.39,2.46,127.37.54,187.49-.18,4.17-.3,8.33-.53,12.5h-.3c-.23-4.17-.35-8.33-.53-12.5-1.05-29.1-.98-58.4-.51-87.5.49-24.7.15-75.9,1.35-100h-.02Z"/>
        <path class="cls-2" d="M336.83,295.95c-50.29-28.62-106.93-58.9-155.86-89.37-3.37-2.15-6.76-4.26-10.11-6.45l.15-.26c3.57,1.8,7.09,3.69,10.64,5.53,24.68,13.04,48.95,27.13,72.87,41.47,20.25,12.25,62.94,36.51,82.31,49.08h0Z"/>
      </g>
    </g>
  </g>
</svg>