<?xml version="1.0" encoding="UTF-8"?>
<svg id="Layer_2" data-name="Layer 2" xmlns="http://www.w3.org/2000/svg" viewBox="0 0 25 24.4">
  <defs>
    <style>
      .cls-1 {
        fill: #fff;
      }
    </style>
  </defs>
  <g id="Layer_1-2" data-name="Layer 1">
    <g>
      <path class="cls-1" d="M9.4,7.82c-.65-.63-1.44-1.4-2.07-2.05-1.02-1.06-1.41-1.58-2.82-2.22-.05-.02-.13-.11-.17-.02.21.29.34.64.52.94,1.13,1.91,3.51,3.8,5.13,5.4,1.49,1.48,3.14,3.04,4.56,4.56.12.13.83.96.83,1.02l-1.44,1.56c-1.26-1.32-2.78-2.36-4.15-3.57-.28-.25-1.06-.89-1.17-1.2-.09-.25-.11-.64-.15-.91-.02-.02-.55.02-.67,0-.37-.04-1.54-1.22-1.91-1.53-.99-.82-1.99-1.54-2.87-2.49-.29-.31-1-1.1-1.17-1.45-.33-.72-.52-2.06-.64-2.87-.14-.94-.26-1.88-.24-2.83l3.13.39c1.17-.12,1.9.07,2.9.61s.91.81,1.59,1.54c.44.47,1.1.91,1.5,1.44.27.36.5,1.19.71,1.4.13.12.43.13.6.23.11.07.29.27.39.38.78.79,1.46,1.69,2.23,2.49.56.58,1.2,1.09,1.76,1.69.77.83,1.43,1.76,2.2,2.58l-1.56,1.57c-.05.06-.09.07-.16.03-.13-.07-.48-.5-.64-.64-2.15-1.92-4.14-4.05-6.23-6.05Z"/>
      <path class="cls-1" d="M22.59,11.29v2.49c-.52.24-1.35.43-1.81.71s-.98,1.08-1.44,1.43c.91.97,1.92,1.88,2.77,2.9.13.16.87,1.1.9,1.21.02.07.02.11-.03.16l-1.63,1.69-.16.03c-.69-.67-1.55-1.2-2.26-1.82-.66-.58-1.25-1.27-1.92-1.85-.35.46-1.14.98-1.43,1.44s-.46,1.29-.71,1.81h-2.49v-2.49l1.88-.77,5.17-5.23.68-1.78,2.48.06Z"/>
      <path class="cls-1" d="M21.5,1.91l-.57-.26.1-.18c1.15-.5,2.27-1.07,3.47-1.44.08-.02.09-.07.06.06l-2.08,4.88c-.1.19-.14-.19-.29-.19l.04.83-1.06,2.39c-.1.15-.33.16-.43,0-.27-.45-.38-1.51-.62-2.03.37-.61.88-1.13,1.12-1.82l-2.55,2.68c-.14-.58-.56-.77-1.02-1.05l2.74-2.46-1.88,1.01c-.16,0-1.69-.5-1.89-.6-.13-.07-.31-.23-.15-.36.08-.06.83-.38,1-.45.42-.18,2.4-1.01,2.69-1.01h1.31Z"/>
      <path class="cls-1" d="M1.73,22.06c-.05-.08,0-.15.05-.22.26-.39,1.02-.95,1.38-1.3,2.02-1.98,3.98-4.02,5.99-6,.05-.06.09-.05.16-.03.23.06.86.68.71.9l-7.41,7.34c-.14.06-.59-.47-.7-.58-.05-.05-.18-.09-.18-.1Z"/>
      <path class="cls-1" d="M5.81,17.22l-3.19,3.16-2.61-.16c.43-.44.84-.94,1.31-1.34.08-.07.44-.4.48-.41.34-.16.76.19.96-.35l-.38-.16,1.28-1.08c.36-.17,1.7.35,2.17.35Z"/>
      <path class="cls-1" d="M6.7,22.07c-.19-.08-.18-.33-.25-.48-.03-.08.03-.12-.13-.09-.03.05-.07.95-.16,1.15-.1.21-.73.65-.89.89l-.22-.38c.07.56-.17.76-.49,1.13-.03.03-.04.18-.14.08s-.16-2.14-.19-2.45c.96-1.19,2.1-2.22,3.19-3.29l.39,2.01-1.09,1.44Z"/>
      <path class="cls-1" d="M24.04,20.1l.96.54-.21,2.19c-.28.15-.65.63-.91.75-.23.1-1.67.32-1.97.33-.05,0-.1.01-.15-.03-.09-.26-.53-.74-.41-.99.9-.93,1.65-2.02,2.7-2.8Z"/>
      <path class="cls-1" d="M17.53,6.19c.37-.09.84.49.84.84l-2.19,2.22c-.05.05-.11.07-.18.05-.06-.01-.85-.63-.8-.78l2.33-2.33Z"/>
    </g>
  </g>
</svg>