<?xml version="1.0" encoding="UTF-8"?>
<svg id="Layer_2" data-name="Layer 2" xmlns="http://www.w3.org/2000/svg" viewBox="0 0 22.77 25">
  <defs>
    <style>
      .cls-1 {
        fill: #fff;
      }
    </style>
  </defs>
  <g id="Layer_1-2" data-name="Layer 1">
    <g>
      <path class="cls-1" d="M6.01,4.77c-.35-.35-.47-2.15-.63-2.72-.08-.28-.61-1.28-.49-1.47.22-.15.52-.21.79-.24,3.08-.41,6.48-.03,9.59-.19.58-.03,2.02-.37,2.44.15.19.23.48.87.64,1.17.29.55,1.13,2.14,1.19,2.68.02.17-.05.45-.04.67.05.84.52,2.83.17,3.5-.07.14-.18.21-.27.32l.34.48-.29.54c.2.42.58.52.58,1.07,0,.35-.39,1.19-.72,1.34-.22.1-1.69.32-1.94.3-.69-.06-.64-.71-.96-1.14-1.04-1.42-3.37-1.08-4.03.51-.14.34-.2.98-.44,1.22-.41.43-2.43.41-3.08.49-.45.05-.9.28-1.31.08-.5-.24-.36-.78-.44-1.27-.24-1.34-1.08-4.27-.79-5.47.02-.08.09-.15.11-.23.09-.42-.33-.58-.28-.91.04-.27.54-.5.54-.54-.15-.2-.49-.16-.67-.33Z"/>
      <path class="cls-1" d="M19.35.67c1.02-.15,1.51.93,1.92,1.68,1.02,1.91.81,2.8.97,4.85.14,1.73.51,3.44.44,5.18-.18.39-.43.74-.67,1.09-.58.84-.71,1.18-1.76,1.42-2.75.61-5.97.88-8.8,1.23-1.24.15-2.59.2-3.8.4-.6.1-1.17.47-1.72.04-.32-.26-1.39-1.67-1.53-2.04-.22-.61-.34-1.85-.44-2.54-.32-2.08-.52-4.17-.85-6.24-.14-.91-.41-3.21-.92-3.87-.18-.24-1-.94-.74-1.28.19-.24,1.71-.21,2-.08.14.06.24.24.31.37,1.29,2.11,1.42,6.36,1.76,8.85.16,1.15.46,4.18,1.41,4.85.5.35.73.1,1.2.03,1.07-.16,3.21-.54,4.2-.44.56.06.81.55,1.31.74.75.29,2.07.08,2.63-.52.29-.31.34-.79.8-.96.81-.3,2.26.01,2.95-.38.35-.19.93-1.39,1.04-1.79.22-.74-.09-1.37-.15-2.11-.16-1.9.07-4.43-.6-6.2-.29-.77-.97-1.43-.97-2.29Z"/>
      <path class="cls-1" d="M19.29,17.32c1.22-.09.83.29.4,1.04.11.21.3.29.4.53.22.54-.02,1.51-.6,1.72-.44.16-1.3.26-1.8.35-2.48.46-5.29.67-7.7,1.25-.33.08-.62.33-.93.27-.14-.03-1.12-.47-1.16-.56l.14-.82c-.6-.39-.99-1.59-.13-1.9.66-.23,1.97-.36,2.71-.47,1.65-.26,3.32-.42,4.97-.7,1.19-.2,2.52-.63,3.69-.71Z"/>
      <path class="cls-1" d="M22.36,16.33c.28-.07.34.63.36.8.05.68.1,3.21-.06,3.75-.17.58-1.55,1.91-2.09,2.26-3.98.33-8.04,1.63-12.01,1.83-1.41.07-2.69-.07-3.72-1.13-.06-.38-.12-.77-.17-1.15-.08-.7-.25-1.92-.09-2.57.11-.45.57-.58,1-.62s.68-.02.82.44c.08.27.11.75.13,1.04.03.42-.06,1.46.17,1.78.16.22,1.34.8,1.62.83.34.04.62-.15.94-.23.85-.19,1.84-.27,2.72-.41,2.23-.38,4.46-.72,6.7-1.08.35-.05,1.16-.14,1.44-.27.23-.11,1.08-1.18,1.13-1.41.09-.42.04-1.56.06-2.09.01-.29-.02-.58,0-.87l1.05-.91Z"/>
      <path class="cls-1" d="M2.52,22.44c-.86.15-1.07-.79-1.17-1.45-.15-1-.09-2.04-.1-3.05-.35.07-.33.78-.59.9-.56.25-.61-.57-.63-.93-.14-1.93.26-3.85.34-5.77s-.09-3.84,0-5.73c.02-.37.07-1.24.24-1.52.04-.06.08-.11.13-.16.29.88.55,1.64.66,2.57.52,4.43.7,9.08.98,13.55.03.53.1,1.06.15,1.59Z"/>
      <path class="cls-1" d="M14.3,11.49c1.15-.24,1.85,1.42.93,2.15-.86.68-2.24-.27-1.86-1.32.09-.26.67-.77.93-.83Z"/>
    </g>
  </g>
</svg>