<?xml version="1.0" encoding="UTF-8"?>
<svg id="Layer_2" data-name="Layer 2" xmlns="http://www.w3.org/2000/svg" viewBox="0 0 22.23 22.53">
  <defs>
    <style>
      .cls-1 {
        fill: #231f20;
      }
    </style>
  </defs>
  <g id="Layer_1-2" data-name="Layer 1">
    <g>
      <path class="cls-1" d="M18.81,3.49c-.28.35-.57.7-.85,1.04l-.19.24c-3.67,4.48-8.6,10.49-14.03,14.81,1.38-2,2.9-3.98,4.37-5.9,1.24-1.61,2.52-3.27,3.71-4.95.11.02.24.04.38.04.1,0,.2,0,.31-.03.43-.07.75-.33,2.32-1.85.23-.22.41-.4.5-.48.97-.86,2.18-1.9,3.47-2.93M21.31.46s-.03,0-.05,0c-.11.03-1.21.83-1.4.97-1.8,1.31-3.53,2.78-5.19,4.24-.36.32-2.07,2.04-2.34,2.09-.05,0-.09.01-.14.01-.3,0-.49-.18-.67-.18-.06,0-.11.02-.17.07-2.88,4.1-6.24,8.03-9.01,12.18-.23.35-1.27,1.73-.85,2.05.08.06.18.09.29.09.43,0,.99-.42,1.24-.61,5.82-4.27,11.05-10.55,15.5-15.97.8-.97,1.66-2.01,2.38-3.03.19-.26.9-1.23.94-1.45.03-.18-.33-.47-.55-.47h0Z"/>
      <path class="cls-1" d="M21.23,5.28s0,0,0,0h0M20.55,7.23c-.24.54-.52,1.14-.83,1.74-.47.91-1,1.82-1.51,2.71-.43.73-.86,1.49-1.27,2.25-2.55,2.27-4.76,4.09-6.87,5.64.21-.21.42-.42.63-.63.63-.63,1.28-1.29,1.84-1.91,1.03-1.15,1.88-2.35,2.7-3.51.76-1.07,1.47-2.07,2.32-3.06.94-1.09,1.96-2.19,2.99-3.22M21.93,4.76s-.05,0-.08,0c-.35.04-1.2.96-1.48,1.23-1.22,1.19-2.47,2.52-3.57,3.79-1.85,2.14-3.11,4.43-5.01,6.55-1.5,1.67-3.64,3.53-4.87,5.3-.28.4-.37.88.21.88.05,0,.11,0,.17-.01.52-.07,2.07-1.22,2.56-1.57,2.77-1.98,5.37-4.17,7.88-6.4.91-1.73,1.99-3.39,2.88-5.13.41-.79,1.76-3.56,1.6-4.28-.02-.09-.16-.35-.25-.37-.01,0-.03,0-.04,0h0Z"/>
      <path class="cls-1" d="M11.99,2.71C9.23,7.16,5.19,12.29,1.79,15.6c-.01.01-.03.03-.05.04C3.68,11.18,7.33,6.57,11.99,2.71M13.95,0s-.04,0-.06,0c-.18.03-1.68,1.24-1.95,1.46C6.9,5.49,2.28,10.94.23,16.78c-.12.34-.51,1.17.13,1.17.04,0,.09,0,.14-.01.31-.04,1.69-1.33,1.99-1.62C6.56,12.35,11.43,5.94,14.09,1.11c.1-.18.35-.55.31-.74-.03-.18-.24-.37-.46-.37h0Z"/>
    </g>
  </g>
</svg>