<?xml version="1.0" encoding="UTF-8"?>
<svg id="Layer_2" data-name="Layer 2" xmlns="http://www.w3.org/2000/svg" viewBox="0 0 22.23 22.53">
  <defs>
    <style>
      .cls-1 {
        fill: #be1e2d;
      }

      .cls-2 {
        fill: #ef4136;
      }
    </style>
  </defs>
  <g id="Layer_1-2" data-name="Layer 1">
    <g>
      <g>
        <path class="cls-2" d="M1.79,21.61s-.06-.01-.06-.01c.03-.03.11-.36.83-1.39l.11-.16c1.53-2.29,3.27-4.56,4.95-6.75,1.33-1.73,2.7-3.52,3.97-5.31.01,0,.03.02.05.03.14.06.32.13.57.13.06,0,.13,0,.2-.02.23-.04.54-.28,2-1.68.23-.23.43-.41.52-.5,1.39-1.22,3.23-2.81,5.16-4.22.81-.59,1.13-.81,1.25-.89.04.02.08.05.12.08-.09.16-.34.53-.74,1.09l-.1.14c-.66.93-1.43,1.87-2.18,2.78l-.18.22c-3.99,4.86-9.46,11.53-15.43,15.91-.22.17-.73.54-1.02.54Z"/>
        <path class="cls-1" d="M20.17,2.14c-.62.85-1.33,1.72-2.02,2.56l-.19.23c-3.96,4.82-9.37,11.42-15.3,15.79.06-.09.13-.19.2-.3l.11-.16c1.52-2.28,3.26-4.54,4.94-6.73,1.27-1.66,2.59-3.36,3.81-5.08.13.04.29.08.48.08.08,0,.17,0,.27-.02.33-.06.59-.24,2.19-1.78.23-.22.42-.4.51-.49,1.35-1.19,3.12-2.72,5-4.1M21.31.46s-.03,0-.05,0c-.11.03-1.21.83-1.4.97-1.8,1.31-3.53,2.78-5.19,4.24-.36.32-2.07,2.04-2.34,2.09-.05,0-.09.01-.14.01-.3,0-.49-.18-.67-.18-.06,0-.11.02-.17.07-2.88,4.1-6.24,8.03-9.01,12.18-.23.35-1.27,1.73-.85,2.05.08.06.18.09.29.09.43,0,.99-.42,1.24-.61,5.82-4.27,11.05-10.55,15.5-15.97.8-.97,1.66-2.01,2.38-3.03.19-.26.9-1.23.94-1.45.03-.18-.33-.47-.55-.47h0Z"/>
      </g>
      <g>
        <path class="cls-2" d="M7.13,22.15s-.07,0-.08,0c.04,0,.07-.12.18-.28.77-1.11,1.92-2.26,3.03-3.38.65-.66,1.27-1.28,1.81-1.89,1.01-1.12,1.84-2.31,2.66-3.45.73-1.03,1.49-2.1,2.36-3.11,1.1-1.28,2.33-2.58,3.54-3.77l.17-.17c.5-.51.85-.82,1.03-.92.01.02.02.04.02.05.08.37-.61,2.14-1.57,4.02-.47.92-1.01,1.84-1.53,2.74-.45.77-.9,1.54-1.31,2.33-2.93,2.61-5.41,4.63-7.8,6.33l-.16.12c-1.23.88-1.98,1.35-2.23,1.38-.05,0-.09,0-.13,0Z"/>
        <path class="cls-1" d="M21.24,6.19c-.27.75-.75,1.82-1.29,2.89-.47.91-1,1.83-1.52,2.72-.43.74-.88,1.51-1.29,2.28-2.9,2.58-5.35,4.57-7.72,6.26l-.16.12c-.42.3-.75.53-1.02.72.68-.8,1.49-1.62,2.29-2.43.65-.66,1.27-1.28,1.83-1.9,1.02-1.14,1.87-2.33,2.68-3.49.73-1.02,1.48-2.08,2.34-3.08,1.1-1.27,2.31-2.57,3.52-3.75l.17-.17s.1-.1.17-.18M21.93,4.76s-.05,0-.08,0c-.35.04-1.2.96-1.48,1.23-1.22,1.19-2.47,2.52-3.57,3.79-1.85,2.14-3.11,4.43-5.01,6.55-1.5,1.67-3.64,3.53-4.87,5.3-.28.4-.37.88.21.88.05,0,.11,0,.17-.01.52-.07,2.07-1.22,2.56-1.57,2.77-1.98,5.37-4.17,7.88-6.4.91-1.73,1.99-3.39,2.88-5.13.41-.79,1.76-3.56,1.6-4.28-.02-.09-.16-.35-.25-.37-.01,0-.03,0-.04,0h0Z"/>
      </g>
      <g>
        <path class="cls-2" d="M.32,17.57s.16-.4.21-.53l.05-.13C2.43,11.64,6.55,6.26,12.17,1.76c1.46-1.17,1.77-1.37,1.84-1.4-.04.02.02.06.03.09-.02.03-.28.48-.28.48-2.7,4.88-7.55,11.25-11.54,15.12-.57.55-1.58,1.44-1.81,1.52h-.1Z"/>
        <path class="cls-1" d="M12.94,1.63C10.18,6.35,5.69,12.16,1.97,15.78c-.23.22-.56.52-.87.79C2.98,11.58,7.08,6.31,12.41,2.05l.06-.04c.17-.14.33-.26.47-.38M13.95,0s-.04,0-.06,0c-.18.03-1.68,1.24-1.95,1.46C6.9,5.49,2.28,10.94.23,16.78c-.12.34-.51,1.17.13,1.17.04,0,.09,0,.14-.01.31-.04,1.69-1.33,1.99-1.62C6.56,12.35,11.43,5.94,14.09,1.11c.1-.18.35-.55.31-.74-.03-.18-.24-.37-.46-.37h0Z"/>
      </g>
    </g>
  </g>
</svg>