<?xml version="1.0" encoding="UTF-8"?>
<svg id="Layer_2" data-name="Layer 2" xmlns="http://www.w3.org/2000/svg" viewBox="0 0 33.52 18.67">
  <defs>
    <style>
      .cls-1 {
        fill: none;
        stroke: #f5f5f5;
        stroke-miterlimit: 10;
        stroke-width: 2px;
      }

      .cls-2 {
        fill: #5ccae7;
        stroke-width: 0px;
      }
    </style>
  </defs>
  <g id="Layer_1-2" data-name="Layer 1">
    <g>
      <path class="cls-2" d="M24.19,3c3.49,0,6.34,2.84,6.34,6.34s-2.84,6.34-6.32,6.34c-.66-.03-3.16-.71-6.18-1.63l1.1-.28-.83-2.1c-.41-1.03-.84-1.12-3.25-1.63-.1-.02-.21-.04-.32-.07,3-.71,3.06-.95,3.28-1.97l.41-1.88-1.7-.44c3.42-1.5,6.52-2.67,7.49-2.67M24.19,1c-2.8,0-13.39,5.21-13.39,5.21l5.25,1.36c-.03.13-11.07,2.46-11.07,2.46,0,0,11.43,2.28,11.46,2.36l-5.64,1.46s11.52,3.83,13.39,3.83c4.6,0,8.34-3.73,8.34-8.34S28.79,1,24.19,1h0Z"/>
      <path class="cls-1" d="M24.19,1c-2.8,0-13.39,5.21-13.39,5.21l5.25,1.36c-.03.13-11.07,2.46-11.07,2.46,0,0,11.43,2.28,11.46,2.36l-5.64,1.46s11.52,3.83,13.39,3.83c4.6,0,8.34-3.73,8.34-8.34S28.79,1,24.19,1h0Z"/>
    </g>
  </g>
</svg>