<?xml version="1.0" encoding="UTF-8"?>
<svg id="Layer_2" data-name="Layer 2" xmlns="http://www.w3.org/2000/svg" xmlns:xlink="http://www.w3.org/1999/xlink" viewBox="0 0 22.36 25">
  <defs>
    <style>
      .cls-1 {
        fill: url(#radial-gradient);
      }

      .cls-2 {
        fill: url(#radial-gradient-3);
      }

      .cls-3 {
        fill: url(#radial-gradient-2);
      }

      .cls-4 {
        fill: #962d1f;
      }
    </style>
    <radialGradient id="radial-gradient" cx="11.67" cy="12.46" fx="11.67" fy="12.46" r="9.99" gradientTransform="translate(29.86 -22.23) rotate(45) scale(1 3)" gradientUnits="userSpaceOnUse">
      <stop offset=".05" stop-color="#e93e3a"/>
      <stop offset=".09" stop-color="#ea4d37"/>
      <stop offset=".25" stop-color="#f38e2d"/>
      <stop offset=".36" stop-color="#f8b626"/>
      <stop offset=".42" stop-color="#fac624"/>
    </radialGradient>
    <radialGradient id="radial-gradient-2" cx="14.21" cy="14.89" fx="14.21" fy="14.89" r="7.97" gradientTransform="translate(35.74 -26.74) rotate(45) scale(1 3)" xlink:href="#radial-gradient"/>
    <radialGradient id="radial-gradient-3" cx="7.72" cy="10.22" fx="7.72" fy="10.22" r="7.81" gradientTransform="translate(23.93 -16.91) rotate(45) scale(1 3)" xlink:href="#radial-gradient"/>
  </defs>
  <g id="Layer_1-2" data-name="Layer 1">
    <g>
      <path class="cls-4" d="M9.93,2.87c.58-.54,2.8-2.61,3.38-2.79,1.2-.38,2.19.73,2.04,1.91-.13,1.01-1.93,3.51-2.47,4.58-.03.05-.15.23,0,.22l1.79-1.83c1.24-1.1,2.43-2.28,3.72-3.33.81-.65,1.69-1.64,2.76-.93,1.22.82,1.16,1.36.51,2.56-.25.47-.57.91-.88,1.34-.02.14.02.08.1.1,1.31.3,1.68,1.28,1.43,2.54-.62,3.16-2.92,6.48-4.24,9.41-1.71,1.67-3.44,3.34-5.25,4.9-.2.17-.49.36-.69.52-.9.76-2.9,2.63-3.97,2.88-1.39.33-2.57-.88-1.99-2.25.11-.26.32-.42.38-.69-.12-.03-.15.07-.23.13-.56.46-1.04,1.04-1.6,1.5-.15.13-.43.36-.59.46-.44.26-.93.37-1.44.33-.69-.05-.94-.53-1.18-.59-.45-.98-.11-1.75.36-2.61.07-.12.61-.92.56-.98-.95.46-2.31-.09-2.42-1.21-.07-.73.84-2.84,1.16-3.6,1.21-2.84,3.07-6.09,4.97-8.51.2-.25.45-.55.65-.78.12-.14.27-.32.39-.46.22-.25.49-.54.72-.78s.61-.45.72-.78c.27-.05,1.04-1,1.31-1.24ZM13.7,1.25c-.16.03-1.5,1.24-1.75,1.46C7.45,6.73,3.31,12.18,1.48,18.02c-.11.36-.51,1.28.24,1.16.27-.04,1.51-1.33,1.78-1.62,3.64-3.96,7.99-10.38,10.38-15.21.09-.18.31-.55.28-.74s-.25-.4-.46-.36ZM20.29,1.7c-.1.03-1.08.83-1.25.97-1.61,1.31-3.16,2.78-4.64,4.24-.32.32-1.85,2.04-2.09,2.09-.44.09-.64-.32-.88-.1-2.57,4.1-5.58,8.03-8.06,12.18-.21.35-1.14,1.73-.76,2.05s1.08-.29,1.37-.52c5.21-4.27,9.88-10.55,13.87-15.97.72-.97,1.48-2.01,2.13-3.03.17-.26.81-1.23.84-1.45.03-.19-.35-.51-.53-.46ZM20.81,6.01c-.31.04-1.07.96-1.32,1.23-1.09,1.19-2.21,2.52-3.19,3.79-1.65,2.14-2.78,4.43-4.48,6.55-1.34,1.67-3.25,3.53-4.36,5.3-.27.44-.34.97.34.87.46-.07,1.85-1.22,2.29-1.57,2.48-1.98,4.81-4.17,7.05-6.4.82-1.73,1.78-3.39,2.57-5.13.36-.79,1.58-3.56,1.43-4.28-.02-.09-.14-.35-.22-.37-.04-.01-.07,0-.1,0Z"/>
      <g>
        <path class="cls-1" d="M20.29,1.7c.19-.05.56.28.53.46-.03.23-.67,1.19-.84,1.45-.65,1.02-1.42,2.05-2.13,3.03-3.98,5.42-8.66,11.7-13.87,15.97-.29.24-1,.84-1.37.52s.55-1.71.76-2.05c2.47-4.16,5.48-8.08,8.06-12.18.24-.22.44.18.88.1.24-.05,1.77-1.77,2.09-2.09,1.48-1.46,3.03-2.93,4.64-4.24.17-.14,1.15-.94,1.25-.97Z"/>
        <path class="cls-3" d="M20.81,6.01s.07-.02.1,0c.08.02.21.28.22.37.14.72-1.07,3.49-1.43,4.28-.8,1.74-1.76,3.4-2.57,5.13-2.24,2.24-4.57,4.42-7.05,6.4-.44.35-1.82,1.5-2.29,1.57-.68.1-.61-.43-.34-.87,1.11-1.77,3.02-3.63,4.36-5.3,1.7-2.12,2.83-4.41,4.48-6.55.98-1.28,2.1-2.61,3.19-3.79.25-.28,1.01-1.19,1.32-1.23Z"/>
        <path class="cls-2" d="M13.7,1.25c.21-.04.43.17.46.36s-.19.56-.28.74c-2.39,4.83-6.74,11.25-10.38,15.21-.26.29-1.5,1.58-1.78,1.62-.75.12-.36-.8-.24-1.16C3.31,12.18,7.45,6.73,11.95,2.7c.24-.22,1.59-1.43,1.75-1.46Z"/>
      </g>
    </g>
  </g>
</svg>