<?xml version="1.0" encoding="UTF-8"?>
<svg id="Layer_2" data-name="Layer 2" xmlns="http://www.w3.org/2000/svg" viewBox="0 0 15.04 21.57">
  <defs>
    <style>
      .cls-1 {
        fill: #ef4825;
      }

      .cls-1, .cls-2 {
        stroke-width: 0px;
      }

      .cls-2 {
        fill: #b82025;
      }
    </style>
  </defs>
  <g id="Layer_1-2" data-name="Layer 1">
    <g>
      <path class="cls-1" d="M7.85,20.57c-2.65,0-6.85-1.48-6.85-5.45,0-1.92.7-3.48,1.38-4.53.19.45.43.78.66,1.01.51.53,1.17.83,1.85.83.35,0,.7-.08,1-.23,2.1-1.06,1.06-3.55.05-5.96-.53-1.28.33-2.91,1.25-4.12.35,1.25.95,2.95,1.97,4.72.56.97,1.37,1.71,2.15,2.42,1.41,1.29,2.74,2.51,2.74,5.18,0,3.67-3.21,6.13-6.19,6.13Z"/>
      <path class="cls-2" d="M6.94,4.53c.35.88.79,1.83,1.35,2.81.64,1.11,1.5,1.9,2.34,2.66,1.4,1.28,2.42,2.21,2.41,4.44,0,3.07-2.69,5.13-5.19,5.13-2.26,0-5.85-1.21-5.85-4.45,0-1.01.21-1.89.51-2.64.67.61,1.51.94,2.38.94.51,0,1.01-.12,1.45-.34,2.93-1.48,1.54-4.81.52-7.24-.15-.36-.09-.83.09-1.32M7.75,0s-3.99,3.63-2.74,6.62c1.33,3.18,1.4,4.19.42,4.68-.16.08-.35.13-.55.13-.89,0-1.98-.9-1.88-3.16,0,0-3,2.58-3,6.86s4.23,6.45,7.85,6.45,7.19-2.97,7.19-7.13c0-4.68-3.57-5.59-5.02-8.1C8.13,3.05,7.75,0,7.75,0h0Z"/>
    </g>
  </g>
</svg>