<?xml version="1.0" encoding="UTF-8"?>
<svg id="Layer_2" data-name="Layer 2" xmlns="http://www.w3.org/2000/svg" viewBox="0 0 27.55 16.67">
  <defs>
    <style>
      .cls-1 {
        fill: #4dc8f0;
      }

      .cls-1, .cls-2 {
        stroke-width: 0px;
      }

      .cls-2 {
        fill: #fff;
      }
    </style>
  </defs>
  <g id="Layer_1-2" data-name="Layer 1">
    <g>
      <path class="cls-2" d="M19.21,2c3.49,0,6.34,2.84,6.34,6.34s-2.84,6.34-6.32,6.34c-.68-.03-3.34-.76-6.51-1.73.22-.17,2.17-1.74,2.17-1.74,0,0-1.11-1.33-7.56-2.16,6.61-.99,7.33-2.28,7.33-2.28,0,0-1.99-1.75-2.94-2.08,3.42-1.5,6.53-2.68,7.5-2.68M19.21,0c-2.8,0-13.39,5.21-13.39,5.21l5.25,1.36c-.03.13-11.07,2.46-11.07,2.46,0,0,11.43,2.28,11.46,2.36l-5.64,1.46s11.52,3.83,13.39,3.83c4.6,0,8.34-3.73,8.34-8.34S23.82,0,19.21,0h0Z"/>
      <path class="cls-1" d="M19.21,2c3.49,0,6.34,2.84,6.34,6.34s-2.84,6.34-6.32,6.34c-.68-.03-3.34-.76-6.51-1.73.22-.17,2.17-1.74,2.17-1.74,0,0-1.11-1.33-7.56-2.16,6.61-.99,7.33-2.28,7.33-2.28,0,0-1.99-1.75-2.94-2.08,3.42-1.5,6.53-2.68,7.5-2.68"/>
    </g>
  </g>
</svg>