<?xml version="1.0" encoding="UTF-8"?>
<svg id="Layer_2" data-name="Layer 2" xmlns="http://www.w3.org/2000/svg" viewBox="0 0 22.36 25">
  <defs>
    <style>
      .cls-1 {
        fill: #fff;
      }
    </style>
  </defs>
  <g id="Layer_1-2" data-name="Layer 1">
    <path class="cls-1" d="M9.93,2.87c.58-.54,2.8-2.61,3.38-2.79,1.2-.38,2.19.73,2.04,1.91-.13,1.01-1.93,3.51-2.47,4.58-.03.05-.15.23,0,.22l1.79-1.83c1.24-1.1,2.43-2.28,3.72-3.33.81-.65,1.69-1.64,2.76-.93,1.22.82,1.16,1.36.51,2.56-.25.47-.57.91-.88,1.34-.02.14.02.08.1.1,1.31.3,1.68,1.28,1.43,2.54-.62,3.16-2.92,6.48-4.24,9.41-1.71,1.67-3.44,3.34-5.25,4.9-.2.17-.49.36-.69.52-.9.76-2.9,2.63-3.97,2.88-1.39.33-2.57-.88-1.99-2.25.11-.26.32-.42.38-.69-.12-.03-.15.07-.23.13-.56.46-1.04,1.04-1.6,1.5-.15.13-.43.36-.59.46-.44.26-.93.37-1.44.33-.69-.05-.94-.53-1.18-.59-.45-.98-.11-1.75.36-2.61.07-.12.61-.92.56-.98-.95.46-2.31-.09-2.42-1.21-.07-.73.84-2.84,1.16-3.6,1.21-2.84,3.07-6.09,4.97-8.51.2-.25.45-.55.65-.78.12-.14.27-.32.39-.46.22-.25.49-.54.72-.78s.61-.45.72-.78c.27-.05,1.04-1,1.31-1.24ZM13.7,1.25c-.16.03-1.5,1.24-1.75,1.46C7.45,6.73,3.31,12.18,1.48,18.02c-.11.36-.51,1.28.24,1.16.27-.04,1.51-1.33,1.78-1.62,3.64-3.96,7.99-10.38,10.38-15.21.09-.18.31-.55.28-.74s-.25-.4-.46-.36ZM20.29,1.7c-.1.03-1.08.83-1.25.97-1.61,1.31-3.16,2.78-4.64,4.24-.32.32-1.85,2.04-2.09,2.09-.44.09-.64-.32-.88-.1-2.57,4.1-5.58,8.03-8.06,12.18-.21.35-1.14,1.73-.76,2.05s1.08-.29,1.37-.52c5.21-4.27,9.88-10.55,13.87-15.97.72-.97,1.48-2.01,2.13-3.03.17-.26.81-1.23.84-1.45.03-.19-.35-.51-.53-.46ZM20.81,6.01c-.31.04-1.07.96-1.32,1.23-1.09,1.19-2.21,2.52-3.19,3.79-1.65,2.14-2.78,4.43-4.48,6.55-1.34,1.67-3.25,3.53-4.36,5.3-.27.44-.34.97.34.87.46-.07,1.85-1.22,2.29-1.57,2.48-1.98,4.81-4.17,7.05-6.4.82-1.73,1.78-3.39,2.57-5.13.36-.79,1.58-3.56,1.43-4.28-.02-.09-.14-.35-.22-.37-.04-.01-.07,0-.1,0Z"/>
  </g>
</svg>