<?xml version="1.0" encoding="UTF-8"?>
<svg id="Layer_2" data-name="Layer 2" xmlns="http://www.w3.org/2000/svg" viewBox="0 0 27.55 16.67">
  <defs>
    <style>
      .cls-1 {
        fill: #dff0fb;
      }

      .cls-1, .cls-2 {
        stroke-width: 0px;
      }

      .cls-2 {
        fill: #fff;
      }
    </style>
  </defs>
  <g id="Layer_1-2" data-name="Layer 1">
    <g>
      <path class="cls-2" d="M19.21,15.67c-.97,0-5.7-1.41-9.82-2.72l2.31-.6.68-1.34c-.2-.49-.22-.57-7.43-2.02,6.93-1.48,6.95-1.58,7.09-2.22l-.73-1.18-2.59-.67c3.97-1.84,8.96-3.93,10.48-3.93,4.05,0,7.34,3.29,7.34,7.34s-3.29,7.34-7.34,7.34Z"/>
      <path class="cls-1" d="M19.21,2c3.49,0,6.34,2.84,6.34,6.34s-2.84,6.34-6.32,6.34c-.71-.03-3.62-.84-7-1.88l1.09-2.14c-.41-1.03-.84-1.12-3.25-1.63-.1-.02-.21-.04-.32-.07,3.01-.71,3.06-.95,3.28-1.97l-1.4-2.27c3.46-1.52,6.61-2.72,7.59-2.72M19.21,0c-2.8,0-13.39,5.21-13.39,5.21l5.25,1.36c-.03.13-11.07,2.46-11.07,2.46,0,0,11.43,2.28,11.46,2.36l-5.64,1.46s11.52,3.83,13.39,3.83c4.6,0,8.34-3.73,8.34-8.34S23.82,0,19.21,0h0Z"/>
    </g>
  </g>
</svg>