<?xml version="1.0" encoding="UTF-8"?>
<svg id="Layer_2" data-name="Layer 2" xmlns="http://www.w3.org/2000/svg" viewBox="0 0 25 25">
  <defs>
    <style>
      .cls-1 {
        fill: #fff;
      }
    </style>
  </defs>
  <g id="Layer_1-2" data-name="Layer 1">
    <g>
      <path class="cls-1" d="M11.1,2.87c.64-.54,3.13-2.61,3.78-2.79,1.34-.38,2.45.73,2.28,1.91-.15,1.01-2.16,3.51-2.76,4.58-.03.05-.16.23,0,.22l2.01-1.83c1.39-1.1,2.71-2.28,4.16-3.33.91-.65,1.89-1.64,3.08-.93,1.37.82,1.29,1.36.57,2.56-.28.47-.64.91-.99,1.34-.02.14.02.08.11.1,1.46.3,1.87,1.28,1.59,2.54-.7,3.16-3.26,6.48-4.74,9.41-1.92,1.67-3.84,3.34-5.87,4.9-.22.17-.55.36-.77.52-1.01.76-3.24,2.63-4.44,2.88-1.56.33-2.87-.88-2.23-2.25.12-.26.36-.42.43-.69-.14-.03-.17.07-.26.13-.62.46-1.17,1.04-1.79,1.5-.17.13-.48.36-.66.46-.49.26-1.04.37-1.61.33-.77-.05-1.05-.53-1.31-.59-.51-.98-.12-1.75.4-2.61.07-.12.68-.92.62-.98-1.06.46-2.58-.09-2.7-1.21-.08-.73.94-2.84,1.3-3.6,1.35-2.84,3.43-6.09,5.56-8.51.22-.25.51-.55.73-.78.14-.14.31-.32.44-.46.25-.25.55-.54.8-.78s.68-.45.8-.78c.31-.05,1.17-1,1.46-1.24ZM15.31,1.25c-.18.03-1.68,1.24-1.95,1.46C8.32,6.73,3.7,12.18,1.65,18.02c-.13.36-.57,1.28.27,1.16.31-.04,1.69-1.33,1.99-1.62C7.98,13.6,12.85,7.18,15.52,2.35c.1-.18.35-.55.31-.74s-.28-.4-.52-.36ZM22.68,1.7c-.11.03-1.21.83-1.4.97-1.8,1.31-3.53,2.78-5.19,4.24-.36.32-2.07,2.04-2.34,2.09-.49.09-.72-.32-.99-.1-2.88,4.1-6.24,8.03-9.01,12.18-.23.35-1.27,1.73-.85,2.05s1.21-.29,1.53-.52c5.82-4.27,11.05-10.55,15.5-15.97.8-.97,1.66-2.01,2.38-3.03.19-.26.9-1.23.94-1.45.03-.19-.39-.51-.59-.46ZM23.27,6.01c-.35.04-1.2.96-1.48,1.23-1.22,1.19-2.47,2.52-3.57,3.79-1.85,2.14-3.11,4.43-5.01,6.55-1.5,1.67-3.63,3.53-4.87,5.3-.3.44-.38.97.38.87.52-.07,2.07-1.22,2.56-1.57,2.77-1.98,5.37-4.17,7.88-6.4.91-1.73,1.99-3.39,2.88-5.13.41-.79,1.76-3.56,1.6-4.28-.02-.09-.16-.35-.25-.37-.04-.01-.08,0-.12,0Z"/>
      <g>
        <path d="M22.68,1.7c.21-.05.62.28.59.46-.04.23-.75,1.19-.94,1.45-.72,1.02-1.58,2.05-2.38,3.03-4.45,5.42-9.68,11.7-15.5,15.97-.32.24-1.11.84-1.53.52s.62-1.71.85-2.05c2.76-4.16,6.13-8.08,9.01-12.18.27-.22.5.18.99.1.27-.05,1.97-1.77,2.34-2.09,1.65-1.46,3.39-2.93,5.19-4.24.19-.14,1.29-.94,1.4-.97Z"/>
        <path d="M23.27,6.01s.08-.02.12,0c.09.02.23.28.25.37.16.72-1.19,3.49-1.6,4.28-.89,1.74-1.96,3.4-2.88,5.13-2.51,2.24-5.11,4.42-7.88,6.4-.49.35-2.04,1.5-2.56,1.57-.77.1-.69-.43-.38-.87,1.24-1.77,3.38-3.63,4.87-5.3,1.9-2.12,3.16-4.41,5.01-6.55,1.1-1.28,2.35-2.61,3.57-3.79.28-.28,1.13-1.19,1.48-1.23Z"/>
        <path d="M15.31,1.25c.23-.04.48.17.52.36s-.22.56-.31.74c-2.67,4.83-7.53,11.25-11.61,15.21-.29.29-1.68,1.58-1.99,1.62-.84.12-.4-.8-.27-1.16C3.7,12.18,8.32,6.73,13.36,2.7c.27-.22,1.77-1.43,1.95-1.46Z"/>
      </g>
    </g>
  </g>
</svg>