<?xml version="1.0" encoding="UTF-8"?>
<svg id="Layer_2" data-name="Layer 2" xmlns="http://www.w3.org/2000/svg" viewBox="0 0 22.23 22.53">
  <defs>
    <style>
      .cls-1 {
        fill: #ed1c24;
      }

      .cls-2 {
        fill: #be1e2d;
      }
    </style>
  </defs>
  <g id="Layer_1-2" data-name="Layer 1">
    <g>
      <g>
        <path class="cls-1" d="M1.95,21.46c.08-.2.27-.55.7-1.17l.11-.16c1.52-2.29,3.26-4.56,4.95-6.75,1.31-1.7,2.66-3.46,3.91-5.23.14.06.33.13.58.13.07,0,.15,0,.22-.02.27-.05.57-.28,2.06-1.72.23-.22.42-.41.52-.49,1.39-1.22,3.22-2.81,5.15-4.21.56-.41.88-.64,1.07-.77-.12.19-.33.49-.61.88l-.1.14c-.66.92-1.43,1.87-2.18,2.78l-.18.22c-3.99,4.86-9.45,11.51-15.41,15.88-.16.12-.52.39-.79.48Z"/>
        <path class="cls-2" d="M18.81,3.49c-.28.35-.57.7-.85,1.05l-.19.23c-3.67,4.48-8.6,10.48-14.03,14.81,1.38-2,2.9-3.98,4.37-5.9,1.24-1.61,2.52-3.27,3.71-4.95.11.02.24.04.38.04.1,0,.2,0,.31-.03.43-.07.75-.33,2.32-1.85.23-.22.41-.4.5-.48.97-.86,2.17-1.9,3.47-2.93M21.31.46s-.03,0-.05,0c-.11.03-1.21.83-1.4.97-1.8,1.31-3.53,2.78-5.19,4.24-.36.32-2.07,2.04-2.34,2.09-.05,0-.09.01-.14.01-.3,0-.49-.18-.67-.18-.06,0-.11.02-.17.07-2.88,4.1-6.24,8.03-9.01,12.18-.23.35-1.27,1.73-.85,2.05.08.06.18.09.29.09.43,0,.99-.42,1.24-.61,5.82-4.27,11.05-10.55,15.5-15.97.8-.97,1.66-2.01,2.38-3.03.19-.26.9-1.23.94-1.45.03-.18-.33-.47-.55-.47h0Z"/>
      </g>
      <g>
        <path class="cls-1" d="M7.33,21.94c.77-1.1,1.91-2.25,3.02-3.36.65-.66,1.27-1.28,1.82-1.89,1.01-1.13,1.85-2.32,2.67-3.46.73-1.03,1.48-2.09,2.35-3.1,1.1-1.27,2.32-2.57,3.54-3.76l.17-.17c.37-.38.66-.64.84-.79-.07.54-.72,2.15-1.56,3.79-.47.92-1.01,1.84-1.52,2.73-.45.77-.89,1.53-1.31,2.31-2.92,2.6-5.39,4.61-7.77,6.31l-.16.12c-1.37.99-1.92,1.29-2.12,1.35.01-.02.03-.05.05-.07Z"/>
        <path class="cls-2" d="M20.55,7.23c-.24.54-.52,1.14-.83,1.74-.47.91-1,1.82-1.51,2.71-.43.73-.86,1.49-1.27,2.25-2.55,2.27-4.76,4.09-6.86,5.64.21-.21.42-.42.63-.63.63-.63,1.28-1.29,1.83-1.91,1.03-1.15,1.88-2.35,2.7-3.51.76-1.07,1.47-2.07,2.32-3.06.94-1.09,1.96-2.19,2.99-3.22M21.93,4.76s-.05,0-.08,0c-.35.04-1.2.96-1.48,1.23-1.22,1.19-2.47,2.52-3.57,3.79-1.85,2.14-3.11,4.43-5.01,6.55-1.5,1.67-3.64,3.53-4.87,5.3-.28.4-.37.88.21.88.05,0,.11,0,.17-.01.52-.07,2.07-1.22,2.56-1.57,2.77-1.98,5.37-4.17,7.88-6.4.91-1.73,1.99-3.39,2.88-5.13.41-.79,1.76-3.56,1.6-4.28-.02-.09-.16-.35-.25-.37-.01,0-.03,0-.04,0h0Z"/>
      </g>
      <g>
        <path class="cls-1" d="M.56,17.34c.03-.1.07-.2.09-.26l.05-.14C2.54,11.7,6.64,6.34,12.25,1.85c.81-.65,1.26-.99,1.52-1.18-.02.03-.11.19-.11.19-2.69,4.88-7.54,11.22-11.52,15.09-.44.43-1.2,1.1-1.58,1.38Z"/>
        <path class="cls-2" d="M11.99,2.71C9.23,7.16,5.19,12.29,1.79,15.6c-.01.01-.03.03-.05.04C3.68,11.18,7.33,6.57,11.99,2.71M13.95,0s-.04,0-.06,0c-.18.03-1.68,1.24-1.95,1.46C6.9,5.49,2.28,10.94.23,16.78c-.12.34-.51,1.17.13,1.17.04,0,.09,0,.14-.01.31-.04,1.69-1.33,1.99-1.62C6.56,12.35,11.43,5.94,14.09,1.11c.1-.18.35-.55.31-.74-.03-.18-.24-.37-.46-.37h0Z"/>
      </g>
    </g>
  </g>
</svg>