<?xml version="1.0" encoding="UTF-8"?>
<svg id="Layer_2" data-name="Layer 2" xmlns="http://www.w3.org/2000/svg" viewBox="0 0 25 24.23">
  <defs>
    <style>
      .cls-1 {
        fill: #fff;
        stroke-width: 0px;
      }
    </style>
  </defs>
  <g id="Layer_1-2" data-name="Layer 1">
    <g>
      <circle class="cls-1" cx="12.36" cy="5.24" r="5.24"/>
      <path class="cls-1" d="M5.31,24.23h14.1s0-13.2-7.05-13.2-7.05,13.2-7.05,13.2Z"/>
      <path class="cls-1" d="M19.03,2.39c-.38,0-.74.06-1.09.15.67.83,1.09,1.87,1.09,3.01,0,2.04-1.28,3.78-3.08,4.47.8.77,1.88,1.25,3.08,1.25,2.45,0,4.44-1.99,4.44-4.44s-1.99-4.44-4.44-4.44Z"/>
      <path class="cls-1" d="M20.68,22.16h4.32s0-10.43-5.97-10.43c-.63,0-1.19.12-1.69.33,3.22,2.76,3.34,9.58,3.35,10.1Z"/>
      <path class="cls-1" d="M5.97,2.39c.38,0,.74.06,1.09.15-.67.83-1.09,1.87-1.09,3.01,0,2.04,1.28,3.78,3.08,4.47-.8.77-1.88,1.25-3.08,1.25-2.45,0-4.44-1.99-4.44-4.44S3.52,2.39,5.97,2.39Z"/>
      <path class="cls-1" d="M4.32,22.16H0s0-10.43,5.97-10.43c.63,0,1.19.12,1.69.33-3.22,2.76-3.34,9.58-3.35,10.1Z"/>
    </g>
  </g>
</svg>