<?xml version="1.0" encoding="UTF-8"?>
<svg id="Layer_2" data-name="Layer 2" xmlns="http://www.w3.org/2000/svg" viewBox="0 0 25 19.25">
  <defs>
    <style>
      .cls-1 {
        fill: #fff;
        stroke-width: 0px;
      }
    </style>
  </defs>
  <g id="Layer_1-2" data-name="Layer 1">
    <g>
      <path class="cls-1" d="M12.47,19.24c-1.44,0-2.89-.02-4.33.01-.63.01-.9-.17-.88-.84.04-1.13,0-2.26.02-3.38.03-1.33.8-2.21,2.14-2.25,2.05-.06,4.1-.06,6.14,0,1.33.04,2.12.9,2.16,2.24.04,1.18,0,2.36.02,3.54,0,.51-.22.69-.71.69-1.52-.01-3.04,0-4.57,0,0,0,0,0,0,0Z"/>
      <path class="cls-1" d="M15.58,11.24c.51-.91.92-1.7,1.4-2.45.11-.17.44-.28.67-.28,1.73-.02,3.47-.03,5.2.01,1.19.03,2.01.78,2.09,1.95.09,1.31.06,2.63.02,3.94,0,.19-.36.53-.56.54-1.55.04-3.1.03-4.65,0-.19,0-.51-.18-.54-.32-.38-1.99-1.52-3.19-3.64-3.39Z"/>
      <path class="cls-1" d="M9.36,11.22c-.32.07-.63.11-.92.2-1.34.42-2.23,1.3-2.5,2.68-.14.74-.46.92-1.16.9-1.34-.04-2.68-.03-4.02,0-.59.01-.78-.22-.77-.79.03-1.13,0-2.26.01-3.38.02-1.41.83-2.27,2.24-2.31,1.71-.05,3.41-.02,5.12,0,.22,0,.54.13.65.31.46.75.86,1.54,1.33,2.4Z"/>
      <path class="cls-1" d="M5.19,6.47c-1.75-.02-3.14-1.5-3.11-3.29C2.12,1.45,3.57-.01,5.25,0c1.71.01,3.18,1.54,3.16,3.28-.02,1.78-1.46,3.21-3.22,3.19Z"/>
      <path class="cls-1" d="M19.72,6.47c-1.75-.01-3.15-1.48-3.12-3.27C16.62,1.47,18.06,0,19.74,0c1.71,0,3.18,1.51,3.17,3.26,0,1.78-1.44,3.22-3.2,3.21Z"/>
      <path class="cls-1" d="M12.51,10.73c-1.75,0-3.17-1.44-3.17-3.22,0-1.77,1.46-3.26,3.18-3.24,1.69.02,3.12,1.47,3.15,3.2.02,1.77-1.41,3.25-3.15,3.26Z"/>
    </g>
  </g>
</svg>