<?xml version="1.0" encoding="UTF-8"?>
<svg id="Layer_2" data-name="Layer 2" xmlns="http://www.w3.org/2000/svg" viewBox="0 0 20.56 25">
  <defs>
    <style>
      .cls-1 {
        fill: #fff;
      }
    </style>
  </defs>
  <g id="Layer_1-2" data-name="Layer 1">
    <g>
      <path class="cls-1" d="M5.49,6.46l1.35.48c.16.33.56.72.68,1.04.21.54.05,1.29.37,1.87.18.34.62.62.87.92l1.29.02.97-.82c.09-.22.05-1.12-.07-1.34-.19-.36-1.04-.78-1.39-1.04-.24-.18-1.21-.87-1.33-1.04-.08-.12-.38-1.53-.38-1.73-.01-.29.63-1.55.82-1.86.27-.43.81-.91.99-1.38s.1-1.08.21-1.58c.27.37.58.72.79,1.13.26.5.35,1.11.6,1.58.65,1.24,2.8,1.86,3.95,2.64,2.42,1.65,2.72,3.61,1.67,6.27-.58,1.46-2.84,3.15-4.17,3.96-.73.45-1.51.86-2.32,1.12-.95-.57-2.01-.96-2.98-1.5-.63-.35-1.02-.7-1.58-1.11-.73-.53-1.36-.76-1.76-1.69-.08-.19-.43-1.63-.41-1.77s.48-1.13.58-1.27c.46-.66,1.24-.95,1.24-1.96v-.93Z"/>
      <path class="cls-1" d="M12.59,20.66c.02.11.13.12.22.13.42.03,1.16-.38,1.62-.44.53-.06,1.76.62,2.32.85,1.1.44,2.23.82,3.32,1.28.16.22.54.67.49.93-.02.11-.46,1.21-.5,1.26s-.77.31-.86.32c-.46.04-2.2-.85-2.75-1.06-.89-.34-1.83-.59-2.72-.93-1.14-.43-2.19-1.03-3.35-1.37-.77.33-1.62.47-2.39.78-.42.17-.82.49-1.22.64-.44.16-.98.2-1.42.37s-.86.48-1.31.67c-.56.24-2.14.8-2.69.83-.22.01-.58-.25-.83-.26l-.51-1.38c.08-.3.18-.83.45-.99.74-.44,1.81-.56,2.6-.85.44-.17.88-.49,1.31-.67.66-.28,1.43-.45,2.11-.7,3.78-1.42,7.52-2.95,11.29-4.38.45-.17.88-.4,1.32-.59.26.12.84.31.97.54.06.1.46,1.2.46,1.27,0,.09-.33.73-.41.8-.16.15-1.07.43-1.36.56-1.46.68-3.01,1.3-4.53,1.87-.53.2-1.09.37-1.63.51Z"/>
      <path class="cls-1" d="M9.01,18.23l-3.65,1.44c-1.66-.62-3.38-1.07-5-1.82-.1-.08-.31-.78-.3-.92,0-.12.42-1.31.48-1.38.05-.05.75-.37.82-.37.21,0,1.12.46,1.42.56,1.14.4,2.11.83,3.22,1.26.2.08,3.17,1.03,3.02,1.23Z"/>
      <path class="cls-1" d="M4.72,5.44v-2.08c0-.07.59-.84.67-.99.21.16.92.6.93.86,0,.07-.47,1.15-.54,1.24-.15.2-.45.34-.64.51-.15.14-.22.36-.41.45Z"/>
      <path class="cls-1" d="M13.73,1.91l-.66.19c-.09-.23-.58-.67-.65-.83-.08-.19.33-.91.48-.99s.77.44.93.55l-.11,1.08Z"/>
    </g>
  </g>
</svg>