<?xml version="1.0" encoding="UTF-8"?>
<svg id="Layer_2" data-name="Layer 2" xmlns="http://www.w3.org/2000/svg" viewBox="0 0 25 21.97">
  <defs>
    <style>
      .cls-1 {
        fill: #5c5b91;
      }
    </style>
  </defs>
  <g id="Layer_1-2" data-name="Layer 1">
    <g>
      <path class="cls-1" d="M18.14,8.41h-1.41c-.1,0-1,.23-1.1.28-.13.08-.75.74-.82.87-.08.15-.06.38-.14.46-.07.07-.39.1-.42.15-.14.22.26.56.34.75.14.32.13.79.26,1.12.07.18.83.89,1.03,1.04.68.52,1.56.84,2.37,1.05.09.1-.1,1.59-.06,1.91,0,.06-.02.14.09.09.21-.09,1.01-.62,1.22-.79.7-.56,1.43-1.4,1.94-2.14.21-.3.28-.8.7-.71.06-.27-.15-.5-.18-.73-.06-.36.03-.81,0-1.19-.05-.64-.28-1.36-.31-1.95-.03-.5.61-1.01.9-1.42.81-1.1,1.55-2.26,2.42-3.32.11.95-.24,1.84-.37,2.74-.07.49-.03,1.01-.09,1.48-.05.42-.27.92-.35,1.34-.52,2.74-.13,7.51-2.4,9.47-.61.53-2.93,1.87-3.7,2.14-.91.31-3.38.8-4.29.72-.16-.01-.35-.13-.51-.12-.22.02-.49.31-.75.31-.67.01-2.09-.22-2.81-.33-2.97-.49-6.8-1.98-7.85-5.08-.16-1.34-.61-2.85-.73-4.16-.04-.45.02-.92-.02-1.37-.08-.94-.41-1.96-.55-2.9-.08-.51-.07-1.09-.14-1.62-.13-.91-.34-1.82-.43-2.74,1.24,1.41,2.07,3.14,3.31,4.56-.09,1.12-.26,2.25-.3,3.37.42.99.82,1.79,1.54,2.61.67.76,1.45,1.42,2.35,1.88v-1.91c.84-.44,1.79-.67,2.54-1.29.12-.1.8-.78.83-.86.2-.57.26-2.04-.04-2.56-.05-.08-.84-.85-.93-.89-.17-.08-1.06-.32-1.24-.33-.37-.02-.78.16-1.16.03.84-1.02,1.36-2.43,2.29-3.36.57-.57,1.33-.12.94-1.44.77-1.21,1.48-2.46,2.38-3.58l5.62,8.41ZM12.68,13.68c-.14-.04-.1.03-.14.08-.11.14-.64,1.14-.66,1.29-.02.16.09.28-.03.48-.09.16-.39.19-.46.36-.05.13.06.25,0,.31-.04.05-.16.04-.23.1-.05.05-.24.41-.25.49-.02.38,1.46,2.47,1.66,2.98.13.03.08-.06.12-.12.54-.92,1.08-1.86,1.6-2.79l-1.63-3.17Z"/>
      <polygon class="cls-1" points="20.15 2.07 21.2 5.42 19.74 6.84 18.03 4.61 20.15 2.07"/>
      <path class="cls-1" d="M4.86,2.01l1.85,2.6-1.35,2.23c-.13.03-1.26-1.27-1.41-1.48l.91-3.35Z"/>
    </g>
  </g>
</svg>