<?xml version="1.0" encoding="UTF-8"?>
<svg id="Layer_2" data-name="Layer 2" xmlns="http://www.w3.org/2000/svg" viewBox="0 0 24.49 25">
  <g id="Layer_1-2" data-name="Layer 1">
    <path d="M16.21,19.42l-4.56,4.84c1.08.83,1.96,1.02,3.12.23.98-.67,1.98-1.62,2.95-2.35,1.8-1.36,5.4-3.63,6.67-5.29.08-.11.16-.08,0-.21l-11.27-3.55c-.52.61.04,1.09.53,1.51,1.2,1.03,3.19,1.16,4.32,2.35-2.97,1.37-6.3,2.3-9.58,2.36-3.06.05-6.03-.32-5.9-4.15.2-6.18,6.17-10.5,10.22-14.43-.88-.78-1.82-1.04-2.84-.35-1.73,1.17-4.29,3.64-5.68,5.23C2.11,7.99-1.12,14.34.39,17.42c2.33,4.76,11.23,3.36,15.23,1.83l.6.17Z"/>
  </g>
</svg>