<?xml version="1.0" encoding="UTF-8"?>
<svg id="Layer_2" data-name="Layer 2" xmlns="http://www.w3.org/2000/svg" viewBox="0 0 25.34 13.99">
  <defs>
    <style>
      .cls-1 {
        fill: #fff;
        stroke-width: 0px;
      }
    </style>
  </defs>
  <g id="Layer_1-2" data-name="Layer 1">
    <g>
      <path class="cls-1" d="M13.68,4.94c.28,0,.49-.01.7,0,.52.04.84.32.84.85.01,1.06.01,2.12,0,3.18,0,.54-.32.81-.86.82-.21,0-.42.02-.68.03-.01.25-.03.48-.04.71-.04,1.44-1,2.46-2.45,2.48-2.9.03-5.8.03-8.7,0C.99,13.01.01,11.98,0,10.46c0-2.03,0-4.06,0-6.08,0-1.6.9-2.61,2.5-2.64,2.88-.05,5.75-.05,8.63,0,1.6.02,2.48,1,2.53,2.61,0,.16.01.32.03.59ZM6.83,11.73c1.46,0,2.92,0,4.38,0,.91,0,1.15-.22,1.16-1.1.01-2.17.01-4.33,0-6.5,0-.87-.27-1.12-1.16-1.12-2.92,0-5.84,0-8.76,0-.89,0-1.15.25-1.16,1.12-.01,2.17-.01,4.33,0,6.5,0,.88.25,1.1,1.16,1.1,1.46,0,2.92,0,4.38,0Z"/>
      <path class="cls-1" d="M18.15,13.99c-.59-.91-1.06-1.63-1.39-2.13.27-.75.47-1.33.69-1.95.89.19,1.77.38,2.83.61-.53-.8-.97-1.46-1.45-2.2,1.02-.47,1.99-.92,3.11-1.43-1.19-.24-2.22-.46-3.33-.69.28-.48.51-.87.79-1.35h-1.85c.04-.73.07-1.4.11-2.13-.31.11-.6.22-.89.32-.03-.03-.06-.07-.09-.1.74-.98,1.47-1.96,2.21-2.94.06.01.12.02.17.03-.06,1.03-.12,2.07-.19,3.2h3.03c-.56.88-1.01,1.6-1.5,2.38,1.69.34,3.31.66,4.93.99,0,.05,0,.11,0,.16-1.44.66-2.89,1.31-4.39,1.99.75,1.1,1.46,2.14,2.28,3.34-1.57-.35-2.96-.65-4.42-.97-.21.92-.41,1.78-.66,2.86Z"/>
      <path class="cls-1" d="M10.87,7.37c0,.78-.02,1.55,0,2.33.01.48-.16.7-.66.65-.21-.02-.42-.02-.63,0-.41.03-.61-.11-.61-.55.01-1.6.01-3.2,0-4.8,0-.43.17-.61.59-.57.02,0,.05,0,.07,0q1.24-.04,1.24,1.18c0,.59,0,1.18,0,1.76h0Z"/>
      <path class="cls-1" d="M2.68,7.32c0-.78.02-1.55,0-2.33-.02-.44.17-.6.58-.57.05,0,.09,0,.14,0q1.17-.03,1.17,1.12c0,1.34-.03,2.68.01,4.02.02.64-.21.86-.82.78-.02,0-.05,0-.07,0q-1,0-1-.97c0-.68,0-1.36,0-2.05Z"/>
      <path class="cls-1" d="M7.7,7.39c0,.78-.02,1.55,0,2.33.02.44-.11.68-.59.62-.09-.01-.19,0-.28,0q-1.01,0-1.02-.99c0-1.41.02-2.82-.01-4.23-.01-.52.15-.75.68-.7.16.02.33.02.49,0,.53-.05.77.12.73.71-.05.75-.01,1.5-.01,2.26Z"/>
    </g>
  </g>
</svg>