<?xml version="1.0" encoding="UTF-8"?>
<svg id="Layer_2" data-name="Layer 2" xmlns="http://www.w3.org/2000/svg" viewBox="0 0 25 25">
  <defs>
    <style>
      .cls-1 {
        fill: #cabfc5;
      }
    </style>
  </defs>
  <g id="Layer_1-2" data-name="Layer 1">
    <path class="cls-1" d="M24.76,11.9c-.08-.22-.33-.89-.44-1.03-.17-.21-.65-.47-.88-.68-.61-.54-1.08-1.29-1.63-1.79-1-.9-2.14-1.69-3-2.75-.79-.96-1.51-1.79-2.41-2.67-.56-.55-1.15-1.09-1.74-1.6l-2.09-1.39c-.48.32-1.07.57-1.53.9-.07.05-.57.55-.62.49l-.73.9c-.27.34-.83.64-1.19.91-.04.03-.06.1-.16.16,0,.05-.04.07-.05.1-.43.8-.57.66-1.19,1.17-.34.28-.85,1-1.2,1.39-1,1.12-2.29,2.38-3.42,3.37-.85.75-1.13.89-1.78,1.89C.6,11.44,0,12.35,0,12.45c-.01.1.62,1.39.72,1.58.09.15.24.34.36.47.38.38.89.72,1.29,1.09.35.32.6.87.88,1.11.26.22.54.22.82.55.22.26.38.65.59.88.2.22.58.43.81.64.26.25.47.55.72.8,1.33,1.29,2.86,2.41,3.91,3.93l2.26,1.48c.07.05.13.02.2,0,.19-.05,1.16-.62,1.36-.76,1.24-.83,2.05-2.22,3.19-3.18.29-.25.78-.47,1.04-.72.43-.42.78-1.1,1.25-1.55.26-.24.61-.44.88-.68.79-.72,1.44-1.6,2.2-2.31.35-.32.76-.57,1.09-.93.59-.64.99-1.42,1.4-2.18.03-.12-.18-.61-.24-.78ZM22.16,13.3c-.43.68-.85.95-1.4,1.47-.69.67-1.25,1.48-1.96,2.13-.25.23-.59.43-.83.67-.39.38-.69.95-1.06,1.35-.28.3-.65.47-.95.74-.92.81-1.7,2.08-2.63,2.77-.25.18-.54.3-.78.48-.42-.34-1.1-.63-1.47-1-.27-.27-.47-.72-.73-1.01-.35-.38-.89-.75-1.27-1.12-.74-.72-1.42-1.5-2.14-2.23-.21-.22-.49-.37-.69-.62-.2-.26-.39-.74-.59-.94-.15-.15-.48-.24-.68-.42-.28-.26-.46-.68-.71-.93-.39-.39-.91-.65-1.29-1.15-.1-.13-.43-.72-.46-.86-.01-.05-.03-.09,0-.14.31-.43.61-1.11.97-1.48.24-.24.65-.45.9-.69,1.01-.97,2.26-2.17,3.16-3.24.24-.28.49-.75.72-.98.24-.24.66-.41.9-.65.21-.21.28-.52.48-.75.25-.28.65-.46.91-.71.19-.18.36-.5.55-.7.43-.48.89-.83,1.44-1.14.46.34.98.63,1.42,1,1.18,1,2.41,2.42,3.37,3.64.54.69,1.52,1.64,2.18,2.23.19.17.49.32.67.5.42.43.81,1.07,1.27,1.51.21.2.62.42.79.62.05.06.31.74.32.82.02.18-.26.67-.38.85Z"/>
  </g>
</svg>