<?xml version="1.0" encoding="UTF-8"?>
<svg id="Layer_2" data-name="Layer 2" xmlns="http://www.w3.org/2000/svg" viewBox="0 0 25 25">
  <defs>
    <style>
      .cls-1 {
        fill: #cabfc5;
      }

      .cls-2 {
        fill: #fefefe;
      }

      .cls-3 {
        fill: #3a325a;
      }
    </style>
  </defs>
  <g id="Layer_1-2" data-name="Layer 1">
    <g>
      <path class="cls-1" d="M24.76,11.9c-.08-.22-.33-.89-.44-1.03-.17-.21-.65-.47-.88-.68-.61-.54-1.08-1.29-1.63-1.79-1-.9-2.14-1.69-3-2.75-.79-.96-1.51-1.79-2.41-2.67-.56-.55-1.15-1.09-1.74-1.6l-2.09-1.39c-.48.32-1.07.57-1.53.9-.07.05-.57.55-.62.49l-.73.9c-.27.34-.83.64-1.19.91-.04.03-.06.1-.16.16,0,.05-.04.07-.05.1-.43.8-.57.66-1.19,1.17-.34.28-.85,1-1.2,1.39-1,1.12-2.29,2.38-3.42,3.37-.85.75-1.13.89-1.78,1.89C.6,11.44,0,12.35,0,12.45c-.01.1.62,1.39.72,1.58.09.15.24.34.36.47.38.38.89.72,1.29,1.09.35.32.6.87.88,1.11.26.22.54.22.82.55.22.26.38.65.59.88.2.22.58.43.81.64.26.25.47.55.72.8,1.33,1.29,2.86,2.41,3.91,3.93l2.26,1.48c.07.05.13.02.2,0,.19-.05,1.16-.62,1.36-.76,1.24-.83,2.05-2.22,3.19-3.18.29-.25.78-.47,1.04-.72.43-.42.78-1.1,1.25-1.55.26-.24.61-.44.88-.68.79-.72,1.44-1.6,2.2-2.31.35-.32.76-.57,1.09-.93.59-.64.99-1.42,1.4-2.18.03-.12-.18-.61-.24-.78ZM23.35,13.37c-.49.73-.96,1.02-1.57,1.59-.78.72-1.4,1.6-2.2,2.31-.28.25-.67.47-.94.72-.43.41-.78,1.03-1.19,1.45-.31.32-.73.51-1.06.8-1.03.88-1.91,2.25-2.96,3-.28.2-.6.32-.88.52-.47-.36-1.23-.68-1.65-1.08-.31-.29-.52-.78-.82-1.09-.4-.41-1-.81-1.43-1.21-.83-.77-1.6-1.62-2.41-2.41-.24-.23-.55-.4-.78-.67-.23-.28-.44-.79-.66-1.02-.17-.17-.54-.26-.76-.46-.32-.28-.52-.73-.8-1.01-.43-.42-1.03-.7-1.45-1.24-.11-.14-.48-.78-.52-.93-.01-.05-.03-.1,0-.16.35-.47.68-1.2,1.09-1.6.27-.26.73-.49,1.01-.75,1.13-1.05,2.54-2.35,3.55-3.5.27-.3.55-.81.81-1.06.27-.25.74-.44,1.01-.7.23-.23.32-.56.54-.81.28-.31.73-.5,1.02-.77.21-.2.41-.54.61-.76.48-.52,1-.89,1.62-1.23.52.37,1.1.68,1.6,1.08,1.33,1.08,2.71,2.61,3.79,3.93.61.75,1.71,1.77,2.46,2.41.22.19.55.35.75.54.48.46.91,1.16,1.42,1.63.23.21.7.45.88.67.05.06.35.8.36.89.03.2-.3.73-.42.92Z"/>
      <path class="cls-2" d="M23.41,11.56c-.18-.22-.65-.46-.88-.67-.52-.47-.95-1.17-1.42-1.63-.2-.2-.53-.36-.75-.54-.75-.64-1.84-1.66-2.46-2.41-1.08-1.32-2.46-2.85-3.79-3.93-.49-.4-1.08-.71-1.6-1.08-.62.34-1.13.72-1.62,1.23-.2.22-.4.56-.61.76-.29.27-.74.46-1.02.77-.22.24-.31.58-.54.81-.26.26-.74.45-1.01.7-.26.25-.54.75-.81,1.06-1.01,1.15-2.41,2.44-3.55,3.5-.29.26-.74.49-1.01.75-.41.41-.74,1.14-1.09,1.6-.03.05-.01.1,0,.16.04.15.41.79.52.93.42.54,1.02.82,1.45,1.24.28.28.49.73.8,1.01.22.19.59.29.76.46.23.22.44.74.66,1.02.23.28.54.44.78.67.81.79,1.58,1.63,2.41,2.41.43.4,1.03.8,1.43,1.21.3.31.52.8.82,1.09.42.4,1.18.71,1.65,1.08.28-.2.61-.32.88-.52,1.05-.74,1.93-2.12,2.96-3,.34-.29.75-.48,1.06-.8.41-.42.75-1.04,1.19-1.45.27-.26.65-.47.94-.72.8-.71,1.42-1.59,2.2-2.31.61-.56,1.08-.85,1.57-1.59.13-.19.45-.72.42-.92-.01-.09-.31-.82-.36-.89ZM18.43,13.32c-.03.26-.15,1.15-.23,1.32-.21.43-.8.65-1.16.91-.51.37-.9.75-1.15,1.33-.13.3-.25,1.07-.4,1.25-.05.06-.9.5-.96.49-.15-.1-.22-.77-.29-.82-.04-.03-.66.12-.71.16-.1.09-.41,1.4-.54,1.48l-.97.05c-.1-.07-.4-1.56-.58-1.73-.07-.06-.68-.22-.73-.18l-.16,1.04c-.24-.11-1.03-.4-1.13-.61-.26-.53-.27-1.35-.69-1.9-.25-.32-1.15-.72-1.5-1.04-.65-.6-.65-1.91-.76-2.74.04-.24.8-1.02.92-1.35.17-.47.1-1.49.29-1.84.11-.21,1.34-1.59,1.55-1.76.14-.11,1.26-.73,1.41-.76.26-.05.75.06,1.08.04,1.45-.09,2.26-.28,3.63.4.59.29.82.76,1.23,1.25.19.22.62.59.74.81.25.43.2,1.3.34,1.78.12.43.79,1.15.85,1.43.03.14-.08.77-.1.96Z"/>
      <path class="cls-3" d="M17.69,10.92c-.14-.48-.09-1.35-.34-1.78-.13-.22-.56-.59-.74-.81-.41-.49-.64-.96-1.23-1.25-1.37-.69-2.18-.49-3.63-.4-.33.02-.82-.1-1.08-.04-.15.03-1.27.65-1.41.76-.21.18-1.44,1.55-1.55,1.76-.19.35-.11,1.36-.29,1.84-.12.33-.88,1.11-.92,1.35.11.83.11,2.14.76,2.74.35.32,1.24.72,1.5,1.04.42.54.43,1.36.69,1.9.1.2.88.49,1.13.61l.16-1.04s.66.12.73.18c.17.16.48,1.66.58,1.73l.97-.05c.13-.08.44-1.39.54-1.48.05-.05.67-.19.71-.16.08.05.14.72.29.82.05.01.91-.43.96-.49.15-.18.27-.96.4-1.25.26-.58.65-.97,1.15-1.33.36-.26.95-.48,1.16-.91.08-.17.19-1.07.23-1.32.03-.2.13-.82.1-.96-.06-.28-.72-1.01-.85-1.43ZM10.67,14.57c-.08.04-1.44-.72-1.5-.79-.05-.07-.5-.97-.5-1.03,0-.09.36-.99.42-1,.5.16,1.23.14,1.7.3.05.02.1.02.13.08l.77,1.49-1.03.94ZM12.74,16.22c-.15.22-.33.12-.44-.07-.06-.09-.38-.99-.37-1.06,0-.06.49-.92.55-.98.03-.04.07-.06.11-.03.06.27.57.82.56,1.05,0,.06-.36,1.02-.41,1.09ZM15.89,13.78l-1.5.79-1.03-.94c.25-.54.54-1.08.86-1.56.49,0,1.26-.33,1.71-.31.02,0,.05,0,.07.01.05.03.4.92.39.99,0,.06-.45.96-.5,1.03Z"/>
      <path class="cls-2" d="M10.8,12.06c-.48-.16-1.2-.15-1.7-.3-.07.01-.43.91-.42,1,0,.06.45.96.5,1.03.05.07,1.42.82,1.5.79l1.03-.94-.77-1.49c-.03-.06-.07-.06-.13-.08Z"/>
      <path class="cls-2" d="M16.01,11.77s-.04-.01-.07-.01c-.45-.02-1.22.31-1.71.31-.32.48-.61,1.03-.86,1.56l1.03.94,1.5-.79c.05-.07.5-.97.5-1.03,0-.07-.35-.96-.39-.99Z"/>
      <path class="cls-2" d="M12.48,14.11c-.06.06-.55.93-.55.98,0,.07.32.96.37,1.06.11.19.29.29.44.07.04-.07.41-1.03.41-1.09,0-.23-.5-.79-.56-1.05-.03-.03-.07,0-.11.03Z"/>
    </g>
  </g>
</svg>