<?xml version="1.0" encoding="UTF-8"?>
<svg id="Layer_2" data-name="Layer 2" xmlns="http://www.w3.org/2000/svg" viewBox="0 0 25 25">
  <defs>
    <style>
      .cls-1 {
        fill: #ebc38b;
      }

      .cls-2 {
        fill: #dc9329;
      }

      .cls-3 {
        fill: #fffefe;
      }
    </style>
  </defs>
  <g id="Layer_1-2" data-name="Layer 1">
    <g>
      <path class="cls-1" d="M24.99,12.46c-.02-.11-.58-1.51-.64-1.59-.15-.21-.68-.5-.91-.7-.6-.53-1.01-1.19-1.55-1.71-.4-.39-.95-.8-1.4-1.22-1.62-1.49-2.97-3.18-4.56-4.71-.31-.3-.66-.69-.99-.95-.69-.57-1.59-1.04-2.31-1.58-.11-.02-.26.09-.36.14-.79.38-1.53.93-2.14,1.56-.21.22-.4.54-.62.75-.28.26-.89.55-1.11.81-.16.19-.27.57-.47.78-.23.24-.67.43-.93.67-.36.32-.72.95-1.09,1.35-.94,1.04-2.33,2.37-3.39,3.29-.29.25-.77.5-1.01.76-.19.21-.51.71-.68.97-.29.42-.52.89-.82,1.3l-.02.11c.07.11.1.24.15.35.42.93.9,1.57,1.66,2.25.25.22.53.35.78.62.23.25.44.66.67.88.22.2.61.3.8.49.25.24.42.76.68,1.03.19.2.54.4.75.6.81.76,1.56,1.62,2.38,2.38.82.77,1.72,1.35,2.28,2.38l2.4,1.52c.57-.35,1.18-.62,1.72-1.03,1.06-.81,1.87-2.1,2.93-2.98.28-.23.73-.44.98-.68.43-.41.79-1.11,1.25-1.55.27-.26.65-.47.94-.72.82-.72,1.45-1.62,2.25-2.36.68-.63,1.19-.97,1.73-1.79.12-.18.62-1.05.66-1.21.02-.09.03-.13.01-.22ZM23.4,13.28c-.48.73-.93,1.01-1.53,1.58-.79.74-1.45,1.65-2.25,2.36-.33.29-.72.51-1.04.83-.42.42-.76,1.03-1.16,1.43-.31.31-.8.51-1.12.8-.98.9-1.92,2.31-2.98,3.02-.23.15-.53.28-.77.42-.1,0-1.51-.94-1.63-1.06-.3-.28-.52-.78-.82-1.09-.43-.45-1.04-.86-1.5-1.29-.99-.92-1.96-1.89-2.93-2.82-.37-.36-.52-.87-.83-1.19-.2-.2-.57-.29-.8-.5-.28-.26-.49-.7-.75-.96-.56-.56-1.19-.77-1.66-1.55-.15-.25-.38-.63-.28-.9.11-.27.81-1.29,1.03-1.51.27-.28.69-.47.98-.73.34-.31.69-.75,1.04-1.08.83-.78,1.7-1.5,2.46-2.36.29-.33.61-.88.88-1.14.28-.26.81-.48,1.06-.75.19-.21.31-.62.49-.8.21-.21.66-.43.91-.65.49-.43.85-1.06,1.37-1.48.12-.09.85-.55.94-.56.04,0,.08,0,.11.02.5.4,1.15.72,1.63,1.12.41.34.95.9,1.35,1.29.88.86,1.59,1.68,2.36,2.62.57.7,1.68,1.74,2.38,2.33.23.19.57.36.78.57.48.47.92,1.17,1.45,1.65.22.2.64.42.82.63.08.09.41.88.41.99,0,.08-.34.67-.41.78Z"/>
      <path class="cls-3" d="M22.57,10.89c-.53-.48-.97-1.18-1.45-1.65-.21-.21-.55-.37-.78-.57-.7-.6-1.81-1.64-2.38-2.33-.77-.94-1.48-1.76-2.36-2.62-.4-.39-.93-.95-1.35-1.29-.49-.4-1.13-.72-1.63-1.12-.04-.02-.07-.02-.11-.02-.1.01-.83.47-.94.56-.52.42-.89,1.05-1.37,1.48-.25.21-.7.44-.91.65-.18.19-.3.59-.49.8-.25.28-.78.49-1.06.75-.27.26-.59.81-.88,1.14-.76.85-1.63,1.58-2.46,2.36-.35.33-.7.78-1.04,1.08-.29.26-.71.45-.98.73-.21.22-.92,1.24-1.03,1.51-.11.27.13.65.28.9.47.78,1.1.99,1.66,1.55.26.26.46.71.75.96.23.21.6.29.8.5.31.32.46.83.83,1.19.97.94,1.94,1.9,2.93,2.82.46.43,1.08.85,1.5,1.29.3.32.53.81.82,1.09.12.12,1.54,1.06,1.63,1.06.24-.15.54-.27.77-.42,1.07-.71,2-2.12,2.98-3.02.32-.29.81-.49,1.12-.8.4-.4.74-1.01,1.16-1.43.32-.32.71-.54,1.04-.83.8-.71,1.46-1.62,2.25-2.36.6-.56,1.05-.84,1.53-1.58.07-.11.41-.69.41-.78,0-.1-.33-.89-.41-.99-.18-.21-.6-.43-.82-.63ZM20.4,12.7s-.82.25-.95.3c-.56.21-1.09.6-1.59.79-.3.11-.7.1-.98.21-.25.09-.57.42-.83.52-.27.1-.83.1-1.01.28-.16.16-.29.81-.38,1.07-.54,1.49-.98,3.01-1.58,4.48-.04.09-.31.7-.34.72-.05.03-.35.02-.41-.02-.08-.05-.55-1.45-.65-1.68-.36-.87-.83-1.69-1.15-2.58-.06-.44,1.11-.58.67-1.13-.09-.11-.7-.31-.88-.41-.72-.37-1.55-.81-2.29-1.12-.29-.12-.67-.14-.93-.26-.23-.11-.49-.44-.72-.53-.25-.1-.61-.09-.87-.17-.12-.04-.72-.31-.81-.37-.06-.04-.05-.49,0-.53.14-.1.68-.19.9-.28.27-.11.51-.31.78-.41.29-.11.65-.15.94-.25.94-.33,1.82-.83,2.71-1.28.49-.82.56-1.78.93-2.64.38-.86.72-1.7,1.05-2.58.08-.21.17-.79.26-.92.04-.05.5-.04.52-.03.04.03.19.8.25.96.14.33.4.62.56.94.44.83.71,1.8,1.14,2.64.14.72-.97.55-.51,1.13.05.06.68.48.78.52.27.11.65.14.95.25,1.19.42,2.34,1.16,3.53,1.59.14.05.87.23.9.26.02.02.02.49,0,.53Z"/>
      <path class="cls-2" d="M19.49,11.91c-1.19-.43-2.35-1.18-3.53-1.59-.3-.1-.67-.13-.95-.25-.1-.04-.73-.45-.78-.52-.46-.58.65-.41.51-1.13-.44-.84-.71-1.81-1.14-2.64-.17-.32-.43-.61-.56-.94-.07-.16-.22-.93-.25-.96-.02-.02-.48-.03-.52.03-.09.13-.19.71-.26.92-.33.88-.67,1.72-1.05,2.58-.38.86-.44,1.82-.93,2.64-.89.45-1.76.96-2.71,1.28-.29.1-.65.13-.94.25-.27.11-.5.3-.78.41-.22.09-.76.18-.9.28-.05.04-.06.49,0,.53.08.06.69.34.81.37.26.08.62.07.87.17.22.09.49.42.72.53.26.12.64.14.93.26.74.31,1.57.75,2.29,1.12.19.1.79.3.88.41.45.54-.72.68-.67,1.13.33.89.79,1.71,1.15,2.58.1.24.57,1.64.65,1.68.06.04.36.05.41.02.03-.02.31-.62.34-.72.6-1.47,1.04-2.99,1.58-4.48.09-.26.22-.91.38-1.07.19-.19.75-.18,1.01-.28.25-.09.58-.43.83-.52.28-.11.69-.09.98-.21.5-.19,1.03-.58,1.59-.79.13-.05.94-.25.95-.3.01-.04,0-.51,0-.53-.03-.04-.76-.21-.9-.26Z"/>
    </g>
  </g>
</svg>