<?xml version="1.0" encoding="UTF-8"?>
<svg id="Layer_2" data-name="Layer 2" xmlns="http://www.w3.org/2000/svg" viewBox="0 0 25 25">
  <defs>
    <style>
      .cls-1 {
        fill: #fefefe;
      }

      .cls-2 {
        fill: #3b335b;
      }

      .cls-3 {
        fill: #c3c1cd;
      }

      .cls-4 {
        fill: #dd9329;
      }
    </style>
  </defs>
  <g id="Layer_1-2" data-name="Layer 1">
    <g>
      <path class="cls-3" d="M24.37,10.95c-.05-.09-.26-.27-.35-.35-.08-.06-.17-.13-.26-.21-.07-.06-.2-.11-.31-.21-.44-.39-.75-.77-1.14-1.19-1.06-1.17-2.44-2.07-3.47-3.29-.27-.32-.49-.76-.75-1.06-.16-.17-.45-.35-.62-.52-.79-.8-1.66-1.81-2.51-2.51C14.25,1.04,13.33.56,12.59,0c-.11,0-1.56.86-1.73,1-.51.41-.89,1.03-1.34,1.45-.3.28-.85.53-1.11.81-.19.2-.29.59-.5.8-.26.26-.75.46-1.02.71-.21.19-.4.61-.59.84-.31.37-.7.72-1.03,1.06-.84.86-1.85,1.89-2.75,2.67-.29.26-.75.49-1.01.76-.34.34-.9,1.25-1.16,1.69-.12.2-.41.59-.35.79.07.25.69,1.41.86,1.63.47.61,1.21,1.02,1.71,1.55.23.24.42.64.65.86.21.2.6.31.78.48.23.22.43.75.67,1.01.18.2.51.38.72.57.79.73,1.56,1.61,2.36,2.36.86.81,1.79,1.41,2.39,2.48l2.31,1.47c.06.02.1-.01.15-.03.31-.13,1.12-.62,1.41-.82,1.1-.77,1.97-2.11,2.98-3.03.3-.27.76-.48,1.06-.75.49-.44.87-1.16,1.37-1.63.27-.25.63-.46.91-.7.82-.72,1.5-1.65,2.3-2.41.89-.83,1.38-1.2,2-2.33.06-.11.36-.67.36-.74-.25-.47-.38-1.16-.63-1.61ZM23.72,12.66c-.1.32-.77,1.25-1.03,1.51-.22.22-.55.41-.77.63-.8.76-1.49,1.7-2.3,2.41-.37.33-.79.56-1.14.93-.39.4-.73,1.02-1.11,1.38-.29.28-.78.49-1.09.77-.69.64-1.31,1.4-1.94,2.1-.49.55-1.12,1.01-1.79,1.32l-.12-.03c-.42-.37-1.14-.64-1.53-1.01-.32-.3-.57-.84-.93-1.19-.96-.95-2.1-1.85-3.09-2.82-.41-.4-.99-.9-1.35-1.29-.27-.3-.5-.86-.75-1.11-.17-.17-.52-.27-.72-.42-.31-.24-.54-.75-.83-1.04-.43-.43-1.04-.7-1.45-1.24-.08-.1-.54-.94-.54-1.01,0-.19.95-1.53,1.13-1.71.25-.25.61-.44.88-.67,1.23-1.07,2.83-2.61,3.88-3.83.2-.23.36-.58.57-.78.28-.26.86-.51,1.09-.77.17-.2.27-.58.46-.78.23-.24.68-.44.93-.67.23-.21.39-.49.59-.7.52-.54,1.01-1.03,1.72-1.33l.14.05c1.43.84,2.46,1.97,3.61,3.13.33.34.77.66,1.06,1.01.64.74,1.07,1.36,1.81,2.07.62.61,1.38,1.14,1.97,1.71.53.51.96,1.18,1.55,1.71.25.23.67.43.83.72.13.24.32.72.25.97Z"/>
      <path class="cls-1" d="M22.65,10.97c-.59-.54-1.02-1.21-1.55-1.71-.59-.57-1.35-1.1-1.97-1.71-.74-.72-1.17-1.33-1.81-2.07-.3-.34-.73-.67-1.06-1.01-1.15-1.15-2.18-2.29-3.61-3.13l-.14-.05c-.71.31-1.2.79-1.72,1.33-.21.21-.36.49-.59.7-.26.23-.71.43-.93.67-.2.2-.29.58-.46.78-.23.27-.81.51-1.09.77-.21.2-.37.55-.57.78-1.06,1.23-2.65,2.77-3.88,3.83-.27.23-.63.42-.88.67-.19.18-1.13,1.52-1.13,1.71,0,.07.46.91.54,1.01.41.54,1.02.81,1.45,1.24.29.28.51.8.83,1.04.2.15.55.25.72.42.26.25.48.81.75,1.11.36.39.94.89,1.35,1.29.99.97,2.13,1.87,3.09,2.82.36.35.61.89.93,1.19.39.37,1.11.64,1.53,1.01l.12.03c.67-.31,1.3-.78,1.79-1.32.63-.7,1.25-1.46,1.94-2.1.31-.29.8-.49,1.09-.77.38-.36.72-.97,1.11-1.38.36-.37.77-.6,1.14-.93.81-.71,1.5-1.65,2.3-2.41.23-.22.56-.4.77-.63.25-.26.93-1.19,1.03-1.51.08-.25-.12-.73-.25-.97-.16-.29-.58-.5-.83-.72ZM12.21,21.04c0,.05-.36.05-.42,0-.07-.05-.5-1.36-.6-1.58-.38-.91-.86-1.76-1.21-2.68-.09-.32.7-.59.76-.77.03-.09-.04-.36-.11-.42-.09-.07-.63-.23-.8-.32-.76-.39-1.61-.85-2.4-1.17-.29-.12-.64-.14-.89-.25-.23-.1-.48-.42-.72-.52-.27-.12-.65-.11-.94-.2-.11-.04-.66-.29-.73-.34-.06-.04-.05-.46,0-.53.03-.05.71-.23.86-.28.61-.25,1.1-.43,1.72-.66.97-.35,1.85-.81,2.76-1.28.48-.83.55-1.77.93-2.64.39-.88.7-1.73,1.05-2.63.07-.19.19-.76.27-.86.06-.08.41,0,.52-.03l-.05,17.16ZM18.71,14.28c-.2.46-.68.6-1.05.86-.53.38-.97.75-1.22,1.37-.1.24-.25,1.11-.35,1.23-.08.09-.86.39-1.02.48l-.21-.82c-.2,0-.63.05-.73.22-.15.25-.28,1.13-.48,1.33-.1.1-.35.03-.49.05v-3.06s.15,0,.21-.09c.05-.07.37-1.03.36-1.13-.01-.24-.57-.93-.57-1.04v-7.33c.52.04,1.16,0,1.67.07.23.03,1.36.51,1.52.66.29.26.66.82.93,1.14.13.16.61.59.67.73.19.4.16,1.28.31,1.76.06.17.25.47.35.64.13.23.46.55.46.79,0,.32-.23,1.88-.35,2.14Z"/>
      <path class="cls-4" d="M11.74,3.9c-.07.1-.19.67-.27.86-.35.9-.66,1.75-1.05,2.63-.38.87-.46,1.81-.93,2.64-.91.48-1.79.93-2.76,1.28-.62.23-1.11.41-1.72.66-.14.06-.82.24-.86.28-.04.06-.05.48,0,.53.07.06.62.31.73.34.29.1.67.08.94.2.24.1.49.43.72.52.25.11.61.13.89.25.79.32,1.64.79,2.4,1.17.17.09.71.24.8.32.07.06.14.32.11.42-.06.18-.85.46-.76.77.34.92.83,1.78,1.21,2.68.09.22.53,1.53.6,1.58.06.04.41.05.42,0l.05-17.16c-.11.02-.47-.05-.52.03Z"/>
      <path class="cls-2" d="M18.25,10.71c-.15-.47-.12-1.35-.31-1.76-.07-.14-.54-.57-.67-.73-.27-.32-.64-.88-.93-1.14-.16-.14-1.29-.62-1.52-.66-.51-.07-1.15-.02-1.67-.07v7.33c0,.1.56.8.57,1.04,0,.1-.31,1.05-.36,1.13-.06.08-.21.08-.21.09v3.06c.14-.02.4.05.49-.05.2-.2.33-1.08.48-1.33.1-.17.53-.21.73-.22l.21.82c.17-.09.95-.39,1.02-.48.1-.12.25-.99.35-1.23.26-.62.7-.99,1.22-1.37.37-.26.85-.4,1.05-.86.12-.27.35-1.83.35-2.14,0-.24-.33-.56-.46-.79-.1-.17-.29-.47-.35-.64ZM16.45,13.42c-.09.12-1.42.82-1.5.79l-.97-.93.76-1.44c.07-.08,1.79-.4,1.86-.34.02.26.33.72.32.95,0,.07-.41.89-.47.98Z"/>
      <path class="cls-1" d="M14.75,11.83l-.76,1.44.97.93c.08.03,1.41-.66,1.5-.79.06-.09.47-.91.47-.98.02-.23-.3-.69-.32-.95-.07-.06-1.8.26-1.86.34Z"/>
    </g>
  </g>
</svg>