<?xml version="1.0" encoding="UTF-8"?>
<svg id="Layer_2" data-name="Layer 2" xmlns="http://www.w3.org/2000/svg" viewBox="0 0 40.68 50">
  <defs>
    <style>
      .cls-1 {
        fill: #9a3a27;
      }
    </style>
  </defs>
  <g id="Layer_1-2" data-name="Layer 1">
    <path class="cls-1" d="M35.08,8.18c1.71.39,3.47.66,5.18,1.05-.09.93.18,2.27-.01,3.14-.12.53-1.83,2.43-1.78,2.74.4.75,1.89,2.12,2.12,2.82.12.36.09.9.07,1.29-.28,4.97-1.26,11.32-3.31,15.84-1.03,2.26-4.97,8.33-6.85,9.77-1.08.83-3.46,2.15-4.72,2.81-1.73.9-3.63,1.61-5.43,2.35-1.84-.96-4.49-1.45-6.22-2.49s-5.05-4.42-6.45-5.95c-.09-.1-.19-.18-.26-.26-.91-1.02-1.73-2.22-2.7-3.21-.22-1.15.02-2.91-.31-3.97-.14-.46-1.7-1.53-2.02-2.14-.37-.7-1.37-4.21-1.53-5.09-.41-2.19-.06-4.61-.19-6.82S.08,15.6.01,13.25c0-.04,0-.09,0-.13-.04-1.55.02-3.12,0-4.67,1.8-.34,3.8-.35,5.58-.71s3.74-1.48,5.58-1.96L20.27,0c2.09,1.22,3.97,3.21,6.01,4.44,2.3,1.38,6.22,3.15,8.79,3.74Z"/>
  </g>
</svg>