<?xml version="1.0" encoding="UTF-8"?>
<svg id="Layer_2" data-name="Layer 2" xmlns="http://www.w3.org/2000/svg" viewBox="0 0 25 23.9">
  <defs>
    <style>
      .cls-1 {
        fill: #fff;
        stroke-width: 0px;
      }
    </style>
  </defs>
  <g id="Layer_2-2" data-name="Layer 2">
    <g>
      <path class="cls-1" d="M8.36.1c.52-.17,1.09-.11,1.55.18.34.21.68.42.97.69,1.11,1.01,2.18,1.07,3.21-.02,1.04-1.09,2.19-1.19,3.46-.49.85.46,1.68.96,2.5,1.47,1.15.71,1.46,1.73,1.18,3.03-.34,1.57.15,2.49,1.68,2.89,1.42.38,2.02,1.28,2.07,2.64.04.92.03,1.84,0,2.76-.03,1.43-.65,2.38-2.1,2.82-1.75.54-2.09,1.23-1.67,3.12.25,1.12-.02,2.05-.96,2.69-.88.6-1.8,1.16-2.74,1.66-1.11.59-2.12.41-3.06-.48-1.45-1.38-2.17-1.29-3.64.01-.49.44-1.26.89-1.85.83-2-.19-3.69-1.21-4.9-2.79-.37-.48-.27-1.46-.14-2.17.29-1.63-.16-2.64-1.74-2.99C.82,15.64.08,14.87.03,13.56c-.05-1.36-.07-2.77.22-4.08.14-.63.95-1.32,1.62-1.58,2.12-.84,2.36-1.15,2.03-3.35-.08-.53-.08-1.2.19-1.62C5.08,1.37,6.63.68,8.36.1ZM19.66,4.63c-.02-.61-.31-1.18-.81-1.54-.55-.39-1.24-.6-1.82-.96-.68-.42-1.22-.34-1.88.27-1.55,1.44-3.73,1.5-5.25.05-1.09-1.04-1.85-.34-2.7.11-.84.44-1.7.79-1.46,2.14.45,2.55-.49,3.87-2.94,4.76-.42.15-.91.67-.99,1.09-.16.84-.15,1.74-.03,2.59.06.39.47.91.84,1.06,2.85,1.13,3.46,2.17,3.03,5.26-.05.37.11.94.38,1.14.72.55,1.52,1.04,2.36,1.38.34.14.97-.03,1.28-.3,2.04-1.75,3.74-1.87,5.83-.13.99.83,1.72.27,2.46-.22.75-.5,1.78-.78,1.47-2.15-.51-2.3.4-3.83,2.53-4.74.43-.18.95-.47,1.16-.84.61-1.06.65-3.95-1.02-4.32-.49-.11-1.47-.56-1.69-.94-.49-.86-.69-2.26-.72-3.71Z"/>
      <path class="cls-1" d="M7.75,12.03c-.02-2.72,1.97-4.77,4.67-4.8,2.69-.03,4.82,1.99,4.88,4.64.06,2.66-2.14,4.92-4.8,4.92-2.62,0-4.73-2.11-4.75-4.76ZM12.53,14.97c1.69-.01,2.98-1.33,2.96-3.02-.02-1.64-1.42-3.02-3.04-2.98-1.62.04-3.04,1.48-3.02,3.06.02,1.58,1.47,2.96,3.1,2.95Z"/>
    </g>
  </g>
</svg>