<?xml version="1.0" encoding="UTF-8"?>
<svg id="Layer_2" data-name="Layer 2" xmlns="http://www.w3.org/2000/svg" viewBox="0 0 25 17.2">
  <defs>
    <style>
      .cls-1 {
        fill: #fff;
        stroke-width: 0px;
      }
    </style>
  </defs>
  <g id="Layer_2-2" data-name="Layer 2">
    <path class="cls-1" d="M24.98,9.49c-.2-2.96-.53-5.93-1.98-7.51C21.56.4,19.98-.06,17.54,0S12.5,0,12.5,0C12.5,0,9.9.07,7.46,0,5.02-.06,3.44.4,1.99,1.98S.21,6.53.02,9.49c-.2,2.96,1.45,6.32,2.17,7.18.72.86,6.39.53,7.44,0s1.32-1.25,1.78-2.11c.46-.86,1.09-.72,1.09-.72,0,0,.63-.13,1.09.72.46.86.72,1.58,1.78,2.11s6.72.86,7.44,0c.72-.86,2.37-4.22,2.17-7.18ZM5.16,11.27c-1.8-.87-1.98-2.68-1.98-2.68.75-.67,2.77-1.44,3.97-.86,2.2,1.05,2.92,3.5,2.92,3.5-.97.61-3.58.67-4.92.03ZM19.09,11.27c-1.34.64-3.95.58-4.92-.03,0,0,.73-2.45,2.92-3.5,1.2-.58,3.23.19,3.97.86,0,0-.18,1.81-1.98,2.68Z"/>
  </g>
</svg>