<?xml version="1.0" encoding="UTF-8"?>
<svg id="Layer_2" data-name="Layer 2" xmlns="http://www.w3.org/2000/svg" viewBox="0 0 25.03 25">
  <defs>
    <style>
      .cls-1 {
        fill: #fff;
        stroke-width: 0px;
      }
    </style>
  </defs>
  <g id="Layer_2-2" data-name="Layer 2">
    <path class="cls-1" d="M2.52,13.34s.44,6.66,3.68,9.63c2.42,2.22,10.89,2.55,10.95,1.31-4.57-.11-4.73-1.49-4.73-1.49,0,0,4.82.88,7.36-.35s4.7-2.29,5.18-7.09c.6-5.96-2.47-9.02-6.41-9.46l1.66,1.93s-3.15-2.1-6.83-1.14-4.55,2.55-4.55,4.82c1.59-2.01,3.42-2.89,3.42-2.89,0,0-2.42,2.33-2.54,4.09-.07,1,.44,5.8,5.61,4.58,0,0-3.84-2.46-2.27-5.07s7.12-3.53,7.96.95c.92,4.87-3.02,7.06-7.26,7.09-3.53.03-8.72-4.24-7.67-9.93s5.96-6.9,5.96-6.9c0,0-1.62,1.68-1.97,3.43,0,0,1.84-3.42,5.78-2.98s7.01,1.93,7.01,1.93c0,0-2.96-7.07-11.69-5.61C5.41,1.16,1.65,5.46.77,8.35s-1.66,7.59,1.58,11.12c-.74-4.02.18-6.13.18-6.13Z"/>
  </g>
</svg>