<?xml version="1.0" encoding="UTF-8"?>
<svg id="Layer_2" data-name="Layer 2" xmlns="http://www.w3.org/2000/svg" viewBox="0 0 28.17 25.2">
  <defs>
    <style>
      .cls-1 {
        fill: #fff;
        stroke-width: 0px;
      }
    </style>
  </defs>
  <g id="Layer_1-2" data-name="Layer 1">
    <path class="cls-1" d="M14.08,0c3.88,0,7.77,0,11.65,0,.28,0,.44.08.58.34.57,1.05,1.16,2.09,1.76,3.13.14.24.12.41-.01.64-1.25,2.19-2.48,4.38-3.71,6.58-.1.19-.16.42-.17.63-.02.77,0,1.55-.02,2.32,0,.18-.11.42-.24.53-.77.6-1.56,1.16-2.34,1.74-.14.11-.29.24-.38.39-1.61,2.84-3.21,5.69-4.8,8.54-.14.25-.28.36-.58.35-1.17-.02-2.35-.02-3.52,0-.27,0-.4-.09-.52-.31-1.6-2.86-3.21-5.72-4.82-8.57-.09-.15-.23-.28-.38-.39-.77-.58-1.54-1.14-2.32-1.71-.21-.15-.29-.34-.28-.6.02-.74.02-1.47,0-2.21,0-.25-.08-.52-.2-.74C2.57,8.48,1.35,6.3.12,4.14c-.15-.26-.16-.44,0-.7C.71,2.4,1.29,1.35,1.87.3,1.99.07,2.14,0,2.39,0c3.9,0,7.79,0,11.69,0ZM4.89,8.68c2.06-3.61,5.04-5.71,9.2-5.71,4.16,0,7.15,2.11,9.19,5.69.9-1.59,1.78-3.14,2.64-4.7.06-.1.04-.29-.02-.4-.24-.47-.49-.92-.77-1.37-.07-.11-.24-.21-.37-.22-.37-.03-.75-.01-1.12-.01-6.71,0-13.41,0-20.12,0-.27,0-.43.06-.55.31-.21.43-.45.84-.69,1.24-.12.2-.11.35,0,.54.47.81.92,1.63,1.38,2.44.4.72.81,1.43,1.23,2.18ZM10.41,9.44c-1.4.43-2.62,1.07-3.79,1.85-.54.36-.83.77-.73,1.43.03.22.06.39.25.54,1.83,1.42,3.88,2.34,6.18,2.64,3.36.44,6.43-.35,9.21-2.29.51-.36.8-.71.72-1.36-.04-.28-.1-.48-.33-.65-1.16-.89-2.42-1.57-3.8-2.05-.12-.04-.24-.07-.39-.11.52,2.16.03,3.75-1.44,4.8-1.26.9-2.98.97-4.26.11-1.76-1.19-2.19-2.87-1.62-4.92ZM9.82,17.35c.01.08,0,.11.02.13,1.04,1.85,2.07,3.7,3.12,5.54.06.1.23.18.36.18.5.02,1,0,1.5.01.22,0,.33-.07.44-.26,1-1.79,2-3.57,3.01-5.35.04-.06.06-.13.12-.27-2.88.86-5.7.87-8.56,0ZM7.24,8.58c4.56-2.22,9.12-2.22,13.69,0-1.75-2.43-4.1-3.75-7.1-3.66-2.79.08-4.98,1.38-6.58,3.66ZM14.05,12.99c1.12.01,2.03-.91,2.04-2.05,0-1.1-.91-2.05-2-2.07-1.07-.01-2,.93-2.02,2.04-.02,1.11.89,2.06,1.98,2.07Z"/>
  </g>
</svg>