<?xml version="1.0" encoding="UTF-8"?>
<svg id="Layer_2" data-name="Layer 2" xmlns="http://www.w3.org/2000/svg" viewBox="0 0 25.23 25.2">
  <defs>
    <style>
      .cls-1 {
        fill: #fff;
        stroke-width: 0px;
      }
    </style>
  </defs>
  <g id="Layer_1-2" data-name="Layer 1">
    <g>
      <path class="cls-1" d="M7.61,3.69V0h1.72v3.66h2.4V0h1.75v3.66h2.38V.01h1.75v3.68c.4,0,.77-.02,1.14,0,.18.02.4.09.53.21.69.66,1.37,1.34,2.03,2.03.12.13.2.35.22.53.03.36,0,.72,0,1.12h3.68v1.74h-3.66v2.39h3.66v1.72h-5.43c0-.15,0-.29,0-.43,0-1.93,0-3.85,0-5.78,0-.25-.07-.43-.25-.6-.41-.38-.73-.93-1.21-1.13-.48-.2-1.09-.07-1.65-.07-3.15,0-6.3,0-9.45,0-.27,0-.45.07-.63.26-.31.34-.66.64-.96.99-.11.13-.2.33-.2.5-.01,3.61-.01,7.22,0,10.82,0,.17.09.38.2.5.39.43.76.97,1.25,1.19.48.21,1.12.06,1.69.07,3.14,0,6.27,0,9.41,0,.25,0,.43-.06.6-.25.38-.42.93-.76,1.14-1.25.2-.47.06-1.09.06-1.65,0-.24,0-.48,0-.75h5.42v1.72h-3.68c0,.41.02.78,0,1.15-.01.17-.08.38-.2.5-.67.7-1.36,1.38-2.05,2.05-.12.12-.33.19-.5.2-.36.03-.72,0-1.13,0v3.68h-1.75v-3.66h-2.4v3.66h-1.74v-3.66h-2.4v3.65h-1.75v-3.68c-.41,0-.8.02-1.18-.01-.17-.01-.37-.1-.5-.22-.68-.65-1.34-1.34-2.01-1.99-.18-.18-.25-.36-.24-.61.02-.34,0-.68,0-1.07H0v-1.75h3.66v-2.39H0v-1.74h3.66v-2.39H0v-1.74h3.68c0-.42-.02-.79,0-1.16.01-.17.09-.38.21-.5.66-.69,1.34-1.37,2.03-2.03.13-.12.35-.2.53-.22.36-.03.72,0,1.14,0Z"/>
      <path class="cls-1" d="M10.71,8.3v2.42h-2.42v-2.42h2.42Z"/>
      <path class="cls-1" d="M16.95,10.73h-2.42v-2.43h2.42v2.43Z"/>
      <path class="cls-1" d="M8.27,16.89v-2.41h2.43v2.41h-2.43Z"/>
      <path class="cls-1" d="M16.95,16.9h-2.42v-2.42h2.42v2.42Z"/>
    </g>
  </g>
</svg>