<?xml version="1.0" encoding="UTF-8"?>
<svg id="Layer_2" data-name="Layer 2" xmlns="http://www.w3.org/2000/svg" viewBox="0 0 17.02 25">
  <defs>
    <style>
      .cls-1 {
        fill: #467555;
      }
    </style>
  </defs>
  <g id="Layer_1-2" data-name="Layer 1">
    <path class="cls-1" d="M16.13,10.84l-1.26.06c-.05.03.61.95.67,1.08.03.07.05.11,0,.18-.39.51-.67,1.16-1.08,1.65-.65.79-1.7,1.67-2.51,2.3-.36.28-1.29,1.04-1.66,1.19-.5.21-1.32.3-1.88.46s-1.73.65-2.24.7c-.44.03-.91-.2-1.36-.03.13-.59.01-1.2.07-1.8.05-.55.29-1.15.37-1.71l3.68-1.02c-.98-.03-1.89-.31-2.78-.7.4-.55.7-1.38,1.17-1.87s1.21-1.02,1.74-1.48c.58-.51,1.15-.99,1.74-1.49.7-.6,1.31-1.28,1.99-1.9-.84.3-2,.47-2.79.85-.46.22-1.21.82-1.64,1.15-.5.38-.95.83-1.44,1.22l-.14-.02-1.46-1.24c.01.29-.14.75-.09,1.02s.57,1.02.54,1.22c-.23.18-.64.36-.82.59-.15.2-.7,1.6-.8,1.6-.62-.68-1.24-1.37-2.06-1.83.15.48.22,1.01.39,1.47.16.43.75,1.18.8,1.54.08.52-.26,1.39-.26,1.96,0,1.93.68,3.61,1.27,5.38.2.59.3,1.3.54,1.87.17.41.88,1.29.92,1.62.02.17-.27.16-.38.12-.08-.03-1.24-.91-1.33-1.01-.32-.34-.67-1.46-.96-1.95-.5-.86-1.63-2.11-1.98-2.96-.19-.46-.23-1.21-.37-1.72s-.5-1.14-.61-1.67c-.45-2.25.29-4.86,1.73-6.61,1.14-1.38,4.37-3.83,6.04-4.4,1.3-.44,2.32-.43,3.66-1.15.59-.31,2.55-1.55,2.97-1.96.27-.26.84-1.4,1.02-1.51.1-.06.8-.09.87.07.05.64.33,1.33.39,1.95s-.03,1.33,0,1.96c.04.72.21,1.57.2,2.28s-.47,1.87-.62,2.61c-.12.63-.17,1.28-.27,1.91Z"/>
  </g>
</svg>