<?xml version="1.0" encoding="UTF-8"?>
<svg id="Layer_2" data-name="Layer 2" xmlns="http://www.w3.org/2000/svg" viewBox="0 0 287.76 25.12">
  <defs>
    <style>
      .cls-1 {
        fill: #e4cb93;
      }
    </style>
  </defs>
  <g id="Layer_1-2" data-name="Layer 1">
    <path class="cls-1" d="M243.49,24.9c.73-.19,1.89.14,2.35.13l5.94-.09c1.76-.03,3.71.15,5.57.08,1.6-.06,3.16-.35,4.45-.4,3.3-.13,6.83-.14,10.15-.16.25,0,.5-.01.74-.01.99-.18,2.74-.79,3.64-.87.51-.04,2.18-.07,2.78-.07.47-.56,1.64-.53,2.47-.54-.02-.11.03-.24,0-.34-.66,0-1.42.2-1.24-.32-.53-.02-1.19,0-1.73.03-1.35-.39-2.9-.29-4.33-.27l-2.11-.3c1.36-.24,2.6.03,4.05-.08.5-.04,4.23-.59,4.35-.72.07-.08-.25-.38-.2-.56.15-.62,2.57-1.17,2.65-1.41-2.43-1.92,2.79-.56,3.57-1.48.22-.27.16-1.88.03-2.24-.22-.62-1.71-1.12-1.66-1.49.02-.18.45-.65.57-.96.34-.92.54-2.25.93-3.05.29-.6,1.64-.96,1.24-1.86-.26-.6-1.5-.74-1.77-1.15-.18-.26,0-.72-.28-.85-1.19-.58-4.53-.26-5.81-.98,1.32-.75,6.74.36,6.92-1.12.03-.22-.06-.34-.25-.5-1.11-.98-12.04-1.63-14.28-1.7-16.78-.54-34.52-.17-51.36-.22-.9,0-1.82.04-2.72.04-5.53-.02-11.29-.07-16.83-.08-3.76,0-7.51.05-11.27.01-10.74-.11-21.83-.23-32.79-.18-2.77.01-5.52-.06-8.3-.04-.42,0-1.1.12-1.36-.15-.06.1-.43.24-.49.34-.52-.63-2.06-.2-2.97-.29-.03.05.03.12,0,.17-2.79-.48-5.78-.28-8.67-.37l-.24.17c-.95-.32-2.36-.09-3.47-.12-.08,0-.17,0-.25,0-3.54-.03-7.27-.05-10.89,0-.08,0-.16,0-.25,0-1.07.02-2.15.03-3.22.05-2.61.04-5.21.24-7.78.3-2.35.05-5.15-.25-7.31-.06-1.15.1-1.86.39-3.46.39-3.52,0-7.04.06-10.53-.01-5.97-.13-14.87.06-20.67-.52-1.15-.11-.83-.15-2.23-.13-1.4.01-3-.08-4.46-.1-.98-.01-1.99.07-2.97.05-.08,0-9.84-.71-12.14-.49-.23.02-2.34-.14-5.7-.25-3.78-.13-7.13-.19-10.8.12-1.89.16-4.75-.16-6.9-.01-1.22.09-4.75.68-5.55,1.26-.02.01-.24.32-.24.34-.03.1.6.59-.41.81-2.07.45-3.72-.67-4.5,1.62-.03.09.03.23,0,.34-.05.27-.26.55-.23.84-2.63-.04-7.02-.09-9.53.14-.91.08-2.36.41-.98.87,1.69.56,4.26.03,5.84.99-.67.32-3.53.14-3.7.57-.16.39.77.75.76,1.16-.02.58-1.93,1.07-1.39,2.67.22.63,1.29.94.06,1.61-.33.18-1.06.26-1.26.42-.22.17-.21.54-.44.8C.49,14.8,0,14.81,0,14.94c0,.23.42.46.46.68.07.37-.65.93-.39,1.39,1.33.3,5.8-.38,6.42.68.1.43-1.11.35-1.22.69-.13.4,1.24.72,1.27.84.08.32-.5.73-.5,1.08-.08,0-.17,0-.25,0l-.99.35c.05.52.54,1,.02,1.51-.24,0-1.35.15-1.73.19-.22.03-2.1.18-1.48.53.22.12,2.51.1,3.03.17,1.3.15,2.58.65,3.81.72,1.75.1,3.46-.37,5.16-.41,2.17-.05,4.53.12,6.82.07,7.16-.13,14.79-.14,22.03,0,1.63.03,3.31.05,4.95.09,3.28.08,6.84.44,10.16.52.57.01,1.16-.04,1.73-.03.25,0,.5-.02.74-.01,7.93.19,15.89.43,23.77.64,1.06.03,2.16-.08,3.22-.05,1.99.06,4.02.38,6.19.41,5.17.06,10.48.07,15.6.1,7.21.04,14.44-.13,21.65-.16,9.48-.04,19.6-.48,28.98-.29.93.02,1.86.26,2.84.13.15-.07.36-.11.49-.18l3.47.12c12.68-.17,25.2-.47,37.87-.41,2.89.01,5.79.01,8.66.04.16,0,.33,0,.49,0,.41,0,.83-.02,1.24-.02,2.46.02,4.96.19,7.43.22,5.52.08,10.97.12,16.47.25l5.07.1Z"/>
  </g>
</svg>