<?xml version="1.0" encoding="UTF-8"?>
<svg id="Layer_2" data-name="Layer 2" xmlns="http://www.w3.org/2000/svg" viewBox="0 0 290.48 25.37">
  <defs>
    <style>
      .cls-1 {
        fill: #ecc9a3;
      }
    </style>
  </defs>
  <g id="Layer_1-2" data-name="Layer 1">
    <path class="cls-1" d="M214.79,1.3c-19.67-.02-39.39-.16-59.09-.04-20.07.12-40.12-.1-60.22-.27-9.01-.08-18.03-.34-27.04-.33l-22.28-.36C41.4.24,36.56-.01,31.82,0c-6.98.02-14.21.21-21.15.89-.68.07-1.25.39-1.91.46-1.12.11-4.96-.16-5.39.42-.21.28-.15.68-.33.95-.36.54-1.12,1.26-1.27,1.81-.18.66.25,1.55.08,1.89-.37.74-3.71.6-.4,2.35.12.4-.74.35-.83.58-.23.62.64.86.7,1.53.08,1.05-.84,1.43-.6,2.61.3,1.48,2.27,2.79,2.59,3.74.16.49-.05.98.07,1.42.6,2.18,1.56,3.09,4.55,3.59-.46.55-2.67,0-2.35.97.15.46,2.98.85,3.7.96,2.2.33,4.45.46,6.67.67.84.04,1.96.44,2.9.49,4.85.28,21.33-.73,25.78-.11l211.01-.08c.7.21,3.6-.21,3.84.13,9.21-.84,18.58-.36,27.86-.42.71-.59,1.21-.44,1.89-.67,3.26-1.07-.92-2.15-1.04-2.54-.26-.87,2.17-1.13,1.15-1.67-.9-.48-5.26-.37-5.6-.67-.05-.04.06-.42.04-.58.7-.07,3.93.05,4.13-.35.41-.84-1.68-.76-1.9-1.45-.08-.27-.16-1.71-.16-2.1,0-.49.56-.83.23-1.44-.04-.07-1.14-1.15-1.22-1.19-.62-.32-1.98-.15-2.08-.59.5-.98-.22-1.93.3-2.99.4-.82,3.57-1.89,2.88-2.59-.72-.73-11.84-.61-13.88-.88-1.11-.15-2.74-.76-3.38-1.45.89.2,1.91-.13,2.7-.1.49.02.97.23,1.51.25,3.58.13,7.17.22,10.75.35l.68-.56c-2.04-.26-4.16-.63-6.21-.8-10.57-.86-21.21-.99-31.84-1.25-4.68-.12-9.39-.42-14.07-.47-5.62-.06-11.81.19-17.45.19"/>
  </g>
</svg>