<?xml version="1.0" encoding="UTF-8"?>
<svg id="Layer_2" data-name="Layer 2" xmlns="http://www.w3.org/2000/svg" viewBox="0 0 22.45 25.2">
  <defs>
    <style>
      .cls-1 {
        fill: #fff;
        stroke-width: 0px;
      }
    </style>
  </defs>
  <g id="Layer_1-2" data-name="Layer 1">
    <g>
      <path class="cls-1" d="M0,11.19c.05-.51.1-.99.16-1.51.63.06,1.23.12,1.83.18.19.02.39.05.58.06.98.01,1.81.4,2.6.96.44.31.92.59,1.4.9-.28.44-.55.86-.82,1.3-.47-.29-.92-.58-1.42-.89.03.53.06,1.01.09,1.49.08,1.05.12,2.1.25,3.14.14,1.15.72,2.08,1.63,2.78,1.4,1.08,2.8,2.14,4.22,3.19,1.22.89,2.57,1.12,4.01.63,1.18-.4,2.35-.81,3.52-1.24,1.74-.64,2.91-2.26,2.84-4.12-.06-1.6-.22-3.19-.38-4.78-.1-1-.6-1.84-1.35-2.51-1.31-1.16-2.65-2.3-3.97-3.45-.03-.03-.07-.05-.12-.09-.89.51-.97,1.56-1.52,2.34-.43-.21-.88-.42-1.35-.65.57-1.18,1.03-2.35,2.19-3.15,1.1-.77,2.31-1.1,3.54-1.43.29-.08.57-.15.88-.22.14.5.26.98.4,1.48-.92.25-1.82.49-2.78.75.24.22.45.41.67.59,1,.87,2,1.73,2.99,2.6,1.19,1.05,1.87,2.37,2.02,3.95.13,1.41.23,2.82.33,4.22.19,2.76-1.55,5.19-4.1,6.02-1.22.4-2.42.89-3.65,1.25-1.85.54-3.57.17-5.12-.97-1.4-1.03-2.79-2.09-4.17-3.15-1.45-1.11-2.21-2.61-2.34-4.42-.11-1.57-.22-3.15-.31-4.72-.01-.24-.16-.23-.31-.24-.7-.07-1.4-.13-2.09-.2-.1,0-.2-.03-.34-.06Z"/>
      <path class="cls-1" d="M10.47,12.02c.42-.3.81-.58,1.24-.88.06.08.13.15.18.23.61.86,1.23,1.71,1.83,2.57.12.17.25.23.46.23,1.31,0,2.62,0,3.96,0v1.54h-3.14c.56.8,1.15,1.5,1.2,2.48.05.98-.46,1.75-.87,2.6-.46-.23-.91-.45-1.38-.68.18-.36.34-.71.51-1.04.3-.58.24-1.12-.14-1.65-1.24-1.73-2.47-3.46-3.7-5.18-.04-.06-.08-.12-.14-.2Z"/>
      <path class="cls-1" d="M8.78.34c.49-.11.97-.22,1.48-.34.26,1.14.52,2.27.78,3.41,1.1-.48,2-1.28,3.16-1.59,1.13-.29,2.26-.6,3.43-.91.13.49.26.97.4,1.48-.62.17-1.22.33-1.82.49-.54.14-1.08.27-1.61.43-.24.07-.49.17-.71.29-.41.21-.79.48-1.21.68-.84.39-1.48.99-2.02,1.72-.2.26-.42.51-.66.79-.39-.33-.78-.65-1.18-.99.27-.32.54-.62.77-.94.08-.11.13-.28.1-.4-.27-1.27-.57-2.53-.86-3.79-.02-.1-.03-.2-.06-.33Z"/>
      <path class="cls-1" d="M6.09,1.44c.36.69.75,1.34,1.03,2.03.32.8.22,1.62-.19,2.39-.25.46-.52.91-.77,1.36.68.56,1.36,1.11,2.06,1.69-.34.4-.66.78-1,1.19-.38-.32-.76-.62-1.12-.95-1.02-.92-2.23-1.32-3.59-1.37-.55-.02-1.11-.08-1.7-.13.04-.52.08-1.01.12-1.57,1.28.14,2.53.28,3.88.42.26-.5.61-1.11.89-1.74.15-.34.05-.71-.14-1.04-.28-.5-.55-1.01-.83-1.54.45-.24.88-.48,1.37-.75Z"/>
    </g>
  </g>
</svg>