<?xml version="1.0" encoding="UTF-8"?>
<svg id="Layer_2" data-name="Layer 2" xmlns="http://www.w3.org/2000/svg" viewBox="0 0 25 24.77">
  <defs>
    <style>
      .cls-1 {
        fill: #fff;
      }
    </style>
  </defs>
  <g id="Layer_1-2" data-name="Layer 1">
    <g>
      <path class="cls-1" d="M12.32,6.92c.52-.05.92,0,1.4.2.29.12.8.34,1.05.5.17.1.31.27.47.39.42.3.89.54,1.3.83s.87.7,1.28,1.03c.79.63,1.6,1.22,2.31,1.95.24.26.26.82.12,1.12-.16.34-.56.5-.83.75-.2.18-.47.6-.74.63-.31.03-.36-.2-.57.16-.18.32-.17.44-.47.72-1,.92-2.12,1.62-3.31,2.26-.62.33-.92.57-1.65.57-.59,0-1.19-.11-1.7-.46-.22-.15-.4-.5-.68-.54-.11-.01-.21,0-.32-.01-.15-.02-1.26-.75-1.45-.89-.21-.15-.37-.36-.57-.53-.8-.67-1.57-1.26-2.36-1.96-.47-.42-1.11-.68-.87-1.44.13-.43.45-.54.76-.79.6-.5,1.15-1.04,1.72-1.57.27-.25,1.27-1.01,1.6-1.05.14-.02.44.04.55-.03s.13-.52.31-.7c.13-.13.73-.44.93-.53.49-.25,1.18-.53,1.73-.58ZM13.78,11.35v.53c0,.28-.41.69-.66.8-.95.42-1.98-.27-1.83-1.33-.44.02-1.12.03-1.13.63-.01.52.4,1.51.81,1.84.54.44,1.66.66,2.31.43.71-.25,1.73-1.52,1.66-2.3-.06-.6-.71-.55-1.15-.6ZM15.91,11.7c-.02.09,0,.43,0,.55,0,.46-.47,1.33-.76,1.7-1.06,1.37-2.29,1.69-3.94,1.11-.94-.33-1.37-.93-1.79-1.81-.28-.61-.11-.8-.15-1.37,0-.07-.02-.22-.08-.26-.11-.04-.93.15-1.11.19-.7.15-1.52.34-2.18.59-.04.02-.15.02-.13.08.4.28.72.66,1.1.97.51.44,1.07.84,1.6,1.26.22.18.42.41.64.58.17.13.91.64,1.06.7.12.05.32.03.47.07.59.16.79.71,1.37.88.24.07.87.1,1.1,0,1.08-.47,3.15-1.72,3.89-2.62.3-.37.4-.83.91-1.01.13-.05.25-.05.37-.08.29-.09.55-.38.79-.58.08-.06.17-.14.27-.17,0-.04-.04-.05-.07-.06-.56-.23-1.43-.42-2.03-.56-.17-.04-1.21-.28-1.28-.24-.01,0-.06.05-.06.06Z"/>
      <path class="cls-1" d="M8.45,0c.26-.05.43.15.3.39-.32.23-.66.45-.97.7s-.57.55-.87.81c-.63.54-1.26.93-1.75,1.63-.36.52-.76,1.24-1.06,1.8-1.09,2.06-1.94,5.32-1.18,7.58.82,2.45,1.67,4.03,4.1,5.18,1.45.69,2.5.78,4.11.71.34-.02,1.13-.21,1.38-.13.12.03.23.17.35.16.14-.01.38-.36.56-.45.38-.2.78-.37,1.16-.58.45-.25.96-.6,1.41-.81.13-.06.27-.11.4,0,.19.17-.08.56-.19.72-.35.5-1.74,1.66-2.29,1.97-1.21.69-3.65.57-5.03.48-1.49-.09-3.2-1.3-4.36-2.18-1.24-.94-1.91-2.06-2.36-3.54-.29-.95-.64-2.04-.59-3.03.06-1.42.38-2.82.63-4.21.47-1.45,1.36-2.78,2.33-3.94.89-1.07,1.89-1.81,2.99-2.65.19-.15.76-.58.96-.62Z"/>
      <path class="cls-1" d="M17.11,24.42c.14-.16.52-.38.72-.54.67-.57,1.3-1.28,1.96-1.87.91-1.32,1.86-2.82,2.29-4.38.06-.22.09-.47.14-.68.09-.34.21-.5.26-.9.24-2.15-.23-3.64-1.09-5.54-.44-.98-.9-1.24-1.59-1.97-.44-.46-.8-1.02-1.36-1.35-.82-.31-1.78-.76-2.63-.96-1.06-.26-1.78.13-2.79.22-.16.02-.33-.01-.48,0-1.21.11-2.47.65-3.3,1.54-.12.13-.19.35-.4.33-.51-.03-.13-.64,0-.85.76-1.23,2.43-2.01,3.8-2.31,1.94-.43,3.57-.61,5.43.26,1.08.51,2.33,1.67,3.12,2.57.57.63.86,1.4,1.23,2.15.17.33.38.65.53.99.38.88.5,2.14.61,3.1.13,1.17-.16,2.37-.44,3.51s-.8,1.56-1.35,2.49c-.85,1.44-1.35,2.37-2.72,3.43-.31.24-1.41,1.03-1.73,1.1-.26.06-.41-.15-.23-.34Z"/>
      <path class="cls-1" d="M18.99,18.64c-.05.05-.22.59-.28.71-.66,1.4-2.69,2.75-4.08,3.34-1.98.85-3.28,1.13-5.45.77-1.82-.3-3.32-.77-4.84-1.82-.53-.36-1.17-.78-1.66-1.17-.69-.54-1.45-1.7-1.98-2.44-.21-.29-.55-.78-.66-1.11-.1-.28-.03-.48.29-.35.23.3.41.61.65.9,1.28,1.51,2.51,2.62,4.13,3.76.64.45,1.8.86,2.57.99,1.26.2,2.81.44,4.07.27,1.07-.14,3.05-1.06,3.9-1.73,1.62-1.29,3.02-3.18,3.3-5.28.03-.26-.01-.64.13-.84.28-.2.76-.95,1.13-.9.23.03.25.35.26.53.03.42-.03.86-.1,1.27-.11.67-.46,2.51-.98,2.91-.09.07-.38.18-.4.2Z"/>
      <path class="cls-1" d="M13.99,1.65c1.33-.05,2.47.31,3.74.62,1.12.27,1.47.71,2.39,1.23.53.3,1.1.49,1.57.89.42.36.72.85,1.1,1.25.17.18.39.34.56.53.45.49,1.39,1.56,1.62,2.15.07.19-.01.38-.22.4-.14.01-.22-.09-.3-.18-.37-.43-.68-.99-1.05-1.44-.56-.67-1.17-1.09-1.84-1.63-.48-.39-.86-.8-1.42-1.11-.46-.26-.96-.44-1.44-.66-1.01-.46-1.43-.76-2.59-.88-1.05-.1-2.17-.26-3.19,0-.44.12-.88.35-1.35.33-.21-.01-.39-.11-.61-.03-.16.06-.33.38-.49.51-.18.15-.41.27-.61.43-.26.22-.5.48-.76.7-.69.58-1.22.83-1.69,1.65-.68,1.2-1.14,2.51-1.37,3.87-.27.2-.69.72-.97.85-.18.09-.4,0-.41-.21-.02-.32.07-.96.12-1.3.61-4.68,4.6-7.81,9.21-7.98Z"/>
    </g>
  </g>
</svg>