<?xml version="1.0" encoding="UTF-8"?>
<svg id="Layer_2" data-name="Layer 2" xmlns="http://www.w3.org/2000/svg" viewBox="0 0 25 22.5">
  <defs>
    <style>
      .cls-1 {
        fill: #fff;
        stroke-width: 0px;
      }
    </style>
  </defs>
  <g id="Layer_1-2" data-name="Layer 1">
    <path class="cls-1" d="M22.5,4.17h-5v-1.67c0-1.38-1.12-2.5-2.5-2.5h-5c-1.38,0-2.5,1.12-2.5,2.5v1.67H2.5c-1.38,0-2.5,1.12-2.5,2.5v13.33c0,1.38,1.12,2.5,2.5,2.5h20c1.38,0,2.5-1.12,2.5-2.5V6.67c0-1.38-1.12-2.5-2.5-2.5ZM9.17,2.5c0-.46.37-.83.83-.83h5c.46,0,.83.37.83.83v1.67h-6.67v-1.67ZM23.33,20c0,.46-.37.83-.83.83H2.5c-.46,0-.83-.37-.83-.83V6.67c0-.46.37-.83.83-.83h20c.46,0,.83.37.83.83v13.33ZM17.5,10.83h-2.5v-2.5c0-.46-.37-.83-.83-.83h-3.33c-.46,0-.83.37-.83.83v2.5h-2.5c-.46,0-.83.37-.83.83v3.33c0,.46.37.83.83.83h2.5v2.5c0,.46.37.83.83.83h3.33c.46,0,.83-.37.83-.83v-2.5h2.5c.46,0,.83-.37.83-.83v-3.33c0-.46-.37-.83-.83-.83ZM16.67,14.17h-2.5c-.46,0-.83.37-.83.83v2.5h-1.67v-2.5c0-.46-.37-.83-.83-.83h-2.5v-1.67h2.5c.46,0,.83-.37.83-.83v-2.5h1.67v2.5c0,.46.37.83.83.83h2.5v1.67Z"/>
  </g>
</svg>