<?xml version="1.0" encoding="UTF-8"?>
<svg id="Layer_2" data-name="Layer 2" xmlns="http://www.w3.org/2000/svg" viewBox="0 0 19.91 25">
  <defs>
    <style>
      .cls-1 {
        fill: #fff;
      }
    </style>
  </defs>
  <g id="Layer_1-2" data-name="Layer 1">
    <path class="cls-1" d="M16.16,1.1c-1.11.14-3.7.52-4.9,1.01s-2.94,1.7-2.94,1.7l-.06-.93s-2.82,2.33-3.53,3.22c-.7.89-1.86,2.77-1.95,3.39-.09.62-.6,2.52-.6,2.52l-.83-1.61S.2,12.54.03,13.82c-.17,1.28.4,3.88.57,4.6s.67,2.25.67,2.25l-.95-.7s.12.74.48,1.22c.36.48.67.91.67.91,0,0,0,.46,0,1.44,0,.98.34,1.45.34,1.45,0,0,.6.06,1.27-.03.68-.09,1.57-.72,1.57-.72,0,0,.75.33,1.31.36.56.03,1.13-.13,1.13-.13l-1.03-.45s1.6-.19,2.7-.31c1.09-.12,2.79-.61,3.87-1.15,1.08-.54,3.04-2.6,3.04-2.6,0,0-.68.05-1.04-.01-.35-.07-.84-.15-.84-.15,0,0,1.92-1.3,2.78-2.27.86-.97,1.95-2.69,2.3-3.65.35-.96,1.04-3.28,1.04-3.28l-.9.38s.44-1.78.44-3.04c0-1.25-.14-2.92-.62-3.99-.48-1.07-.31-3.95-.31-3.95,0,0-1.26.96-2.37,1.1ZM9.29,9.16c-.16-.58-.02-1.18.08-1.76.1-.56.32-1.16.62-1.63.29-.46.56-.94.86-1.4l.11.05c-.21,1.04-.64,2.03-.62,3.11.13,1.09.31,2.17-.11,3.22,0,0-.12.01-.12.01-.42-.5-.67-1.03-.82-1.61ZM6.32,14.56c-.17-.2-.34-.36-.51-.65-.34-.53-.35-1.14-.39-1.7-.05-.56-.03-1.12.04-1.66.09-.54.2-1.06.38-1.56l.12.02c.02,1.04.13,2.07.42,3.08.3.89.83,1.69.74,2.66-.03.16-.06.33-.21.47l-.1-.07c-.12-.22-.31-.41-.48-.6ZM2.71,18.86c-.16-.63.01-1.26.02-1.88,0-.6-.04-1.19-.11-1.81-.06-.62-.14-1.25-.17-1.88l.12-.02c.38,1.09.98,2.56,1.13,3.68.27,1.27.27,2.39.06,3.68,0,0-.11.04-.11.04-.53-.5-.79-1.16-.94-1.83ZM14.1,17.96c-.65.22-1.29.46-1.88.75-.66.33-1.29.67-1.72,1.19,0,0-.16.2-.16.2-.37.51-1.1.85-1.75.77-.82-.08-1.34-.43-2.1-.66l-.03-.12c.99-.68,2.43-.07,3.29-.91,1.19-.97,2.81-1.23,4.33-1.35,0,0,.03.12.03.12ZM16.95,12.91c-.81.9-2.05,1.32-3.21,1.67-1.18.44-2.42.58-3.68.03,0,0-.02-.12-.02-.12,1.07-.73,2.21-.83,3.46-.85,1.15-.15,2.36-.24,3.36-.83,0,0,.08.09.08.09ZM16.92,8.73c-.83.78-2.08.98-3.02.13,0,0,0-.12,0-.12.62-.37,1.07-.55,1.71-.58.33,0,.66-.02.88-.25.44-.4.85-.86,1.27-1.29l.11.06c-.24.68-.48,1.49-.96,2.04ZM10.53,13.06c-1.75,2.86-3.52,5.71-5.64,8.32-.69.88-1.41,1.75-2.17,2.58l-.1-.07c1.91-4.07,4.43-7.78,7.09-11.38,2.28-3.21,5.51-7.77,7.82-10.9,0,0,.1.07.1.07-2,3.31-5,8.06-7.09,11.38Z"/>
  </g>
</svg>