<?xml version="1.0" encoding="UTF-8"?>
<svg id="Layer_2" data-name="Layer 2" xmlns="http://www.w3.org/2000/svg" viewBox="0 0 24.94 25">
  <defs>
    <style>
      .cls-1 {
        fill: #fff;
        stroke-width: 0px;
      }
    </style>
  </defs>
  <g id="Layer_2-2" data-name="Layer 2">
    <g>
      <path class="cls-1" d="M24.94,14.97c-.03-1.02-.45-1.98-1.18-2.68L12.45.99c-.61-.61-1.4-.96-2.27-.99h-.16L1.98,1.34c-.35.06-.61.32-.67.67L0,10.09v.16c.03.86.38,1.66.99,2.27l11.3,11.3c.73.73,1.69,1.15,2.68,1.18h.1c.99,0,1.92-.38,2.59-1.05l6.23-6.23c.7-.77,1.09-1.72,1.05-2.75ZM22.73,16.54l-6.23,6.23c-.83.83-2.23.8-3.13-.1L2.08,11.37c-.29-.29-.48-.7-.51-1.12l1.25-7.41,7.41-1.25c.42.03.8.22,1.12.51l11.3,11.3c.89.89.93,2.3.1,3.13Z"/>
      <path class="cls-1" d="M6.07,6.1c-1.18,1.18-1.18,3.1,0,4.28.57.57,1.34.89,2.14.89s1.56-.32,2.14-.89.89-1.34.89-2.14-.32-1.56-.89-2.14c-1.15-1.18-3.1-1.18-4.28,0ZM9.23,9.26c-.26.29-.64.42-1.02.42s-.73-.16-1.02-.42c-.57-.57-.57-1.47,0-2.04.29-.29.64-.42,1.02-.42s.73.13,1.02.42c.26.29.42.64.42,1.02s-.13.77-.42,1.02Z"/>
    </g>
  </g>
</svg>