<?xml version="1.0" encoding="UTF-8"?>
<svg id="Layer_2" data-name="Layer 2" xmlns="http://www.w3.org/2000/svg" viewBox="0 0 20 19.7">
  <defs>
    <style>
      .cls-1 {
        fill: #eaeaea;
      }

      .cls-1, .cls-2 {
        stroke-width: 0px;
      }

      .cls-2 {
        fill: #fff;
      }
    </style>
  </defs>
  <g id="Layer_1-2" data-name="Layer 1">
    <g>
      <path class="cls-1" d="M9.94,18.7c-.1,0-.2-.03-.28-.08L1.22,12.98c-.14-.09-.22-.25-.22-.42V1.5c0-.28.23-.5.5-.5h16.99c.28,0,.5.23.5.5v11.05c0,.17-.08.33-.23.42l-8.56,5.64c-.08.05-.18.08-.28.08Z"/>
      <path class="cls-2" d="M18,2v10.29l-8.06,5.31-7.94-5.3V2h16M18.5,0H1.5C.67,0,0,.67,0,1.5v11.06c0,.5.25.97.67,1.25l8.44,5.63c.25.17.54.25.83.25s.58-.08.83-.25l8.56-5.64c.42-.28.68-.75.68-1.26V1.5c0-.83-.67-1.5-1.5-1.5h0Z"/>
    </g>
  </g>
</svg>