<?xml version="1.0" encoding="UTF-8"?>
<svg id="Layer_2" data-name="Layer 2" xmlns="http://www.w3.org/2000/svg" viewBox="0 0 19.36 20">
  <defs>
    <style>
      .cls-1 {
        fill: #749638;
      }

      .cls-1, .cls-2 {
        stroke-width: 0px;
      }

      .cls-2 {
        fill: #dae36a;
      }
    </style>
  </defs>
  <g id="Layer_1-2" data-name="Layer 1">
    <g>
      <path class="cls-2" d="M1.4,19c-.17,0-.27-.09-.31-.15-.05-.06-.12-.17-.08-.34L4.56,1.32c.04-.19.2-.32.39-.32h13c.17,0,.27.09.31.15.04.06.12.17.08.34l-3.55,17.19c-.04.19-.2.32-.39.32H1.4Z"/>
      <path class="cls-1" d="M17.23,2l-3.31,16H2.14L5.44,2h11.78M17.96,0H4.96c-.67,0-1.24.47-1.37,1.12L.03,18.31c-.18.87.48,1.69,1.37,1.69h13c.67,0,1.24-.47,1.37-1.12L19.33,1.69c.18-.87-.48-1.69-1.37-1.69h0Z"/>
    </g>
  </g>
</svg>