<?xml version="1.0" encoding="UTF-8"?>
<svg id="Layer_2" data-name="Layer 2" xmlns="http://www.w3.org/2000/svg" viewBox="0 0 24.98 25">
  <defs>
    <style>
      .cls-1 {
        fill: #d8c9be;
      }

      .cls-2 {
        fill: #956536;
      }
    </style>
  </defs>
  <g id="Layer_1-2" data-name="Layer 1">
    <g>
      <path class="cls-1" d="M17.64,0c1.33-.04,2.69.05,4,.27.78.13,1.56.49,2.29.79.22.69.61,1.48.67,2.2.06.8,0,1.69.05,2.5.04.72.18,1.46.21,2.18.07,1.63.06,3.3.11,4.94.04,1.39-.1,2.76-.16,4.14-.07,1.58-.04,3.39-.26,4.94-.1.67-.42,1.31-.48,1.99-.53.24-1.16.6-1.7.77-.73.23-2.13-.19-2.95-.24s-2.01-.06-2.82,0c-.86.06-1.79.34-2.65.43-1.15.11-2.49.08-3.64.05-2.48-.06-4.88-.51-7.36-.16l-2.04-.75c-.02-.62-.34-1.46-.42-2.1-.09-.78-.09-1.62-.17-2.41-.06-.55-.15-1.1-.21-1.65-.04-.36-.1-.7-.11-1.06,0-.64.13-1.28.21-1.91.16-1.31.26-2.52.27-3.85.02-2.58-.37-5.09-.22-7.65.04-.71.32-1.32.53-1.99,0-.03.04-.06.05-.11.03-.11.09-.14.11-.32L2.81.14c.25-.08.5.01.75.03,1.54.1,3.11.27,4.65.27.81,0,1.87-.39,2.71-.43.93-.05,1.95.31,2.87.32,1.18.02,2.61-.29,3.85-.32ZM19.79,4.79h-2.28c-.28,0-.81.72-1.04.93-.2.18-.41.19-.52.49-.08.22-.02.39-.17.57-.21.25-.48.15-.72.29-.58.35-1.03,1.14-1.53,1.6-.17.16-.88.85-1.07.85-.11,0-.53-.3-.63-.38-.78-.66-1.44-1.46-2.18-2.17s-1.52-1.35-2.24-2.06c-.13-.08-.21-.1-.36-.12-.5-.05-1.41-.04-1.92,0-.32.02-.32.09-.34.4-.03.37.06.74.06,1.12,0,.36-.19.65.08.98.39.48,1.26,1.27,1.75,1.65.24.18.65.31.84.54.25.29.41.74.77,1.09.93.89,1.88,1.77,2.82,2.65.35.33.38.67.98.67.76,0,1.03-.17,1.57-.67.96-.9,1.89-1.88,2.84-2.79.51-.49,1.11-.91,1.57-1.46.17-.2.38-.68.53-.8s.39-.09.56-.19c.06-.03.51-.49.56-.56.24-.35.14-1.01.16-1.44,0-.22.19-1.12-.08-1.19ZM19.84,12.44h-2.28c-.38,0-1.37,1.17-1.7,1.49-.85.82-1.71,1.68-2.64,2.41-.1.08-.8.49-.88.49-.32.03-1.21-.53-1.45-.75-.2-.17-.3-.4-.48-.59-.24-.26-.5-.39-.72-.61-.77-.74-1.49-1.52-2.22-2.3-.09-.05-.17-.08-.28-.1-.43-.05-1.76-.06-2.18,0-.48.06-.24.82-.23,1.14s-.06.96.04,1.24c.07.18.56.58.74.7.46.3.57.21,1,.65.77.78,1.5,1.58,2.26,2.36.91.93,1.85,1.83,2.74,2.79.17.12.77.16,1.01.16.63,0,.7-.37,1.06-.75,1-1.07,2.09-2.16,3.16-3.16.24-.22.88-.62,1.05-.84.07-.09.05-.23.12-.33.02-.03.4-.5.43-.53.12-.11.49-.23.66-.35.22-.14.74-.47.77-.72.07-.53.03-1.22.05-1.76,0-.14.15-.61-.02-.66Z"/>
      <path class="cls-2" d="M19.79,4.79c.26.07.08.97.08,1.19-.01.42.08,1.09-.16,1.44-.05.07-.5.53-.56.56-.17.1-.41.07-.56.19s-.37.59-.53.8c-.46.55-1.06.97-1.57,1.46-.95.91-1.88,1.89-2.84,2.79-.54.5-.81.67-1.57.67-.6,0-.63-.34-.98-.67-.94-.88-1.89-1.76-2.82-2.65-.36-.35-.52-.79-.77-1.09-.2-.23-.61-.36-.84-.54-.49-.38-1.36-1.17-1.75-1.65-.27-.33-.08-.62-.08-.98,0-.38-.09-.75-.06-1.12.02-.31.03-.38.34-.4.51-.04,1.42-.05,1.92,0,.15.01.23.04.36.12.72.71,1.51,1.36,2.24,2.06s1.4,1.51,2.18,2.17c.1.09.52.38.63.38.19,0,.9-.69,1.07-.85.5-.46.95-1.26,1.53-1.6.24-.14.51-.04.72-.29.15-.19.09-.36.17-.57.11-.3.32-.31.52-.49.23-.21.76-.93,1.04-.93h2.28Z"/>
      <path class="cls-2" d="M19.84,12.44c.17.05.03.52.02.66-.02.54.02,1.23-.05,1.76-.03.25-.55.57-.77.72-.18.11-.54.24-.66.35-.03.02-.41.5-.43.53-.07.1-.05.24-.12.33-.17.21-.81.61-1.05.84-1.07,1-2.16,2.09-3.16,3.16-.36.38-.43.76-1.06.75-.24,0-.84-.05-1.01-.16-.89-.95-1.83-1.85-2.74-2.79-.76-.78-1.49-1.59-2.26-2.36-.43-.44-.54-.35-1-.65-.18-.12-.67-.52-.74-.7-.1-.27-.03-.91-.04-1.24s-.25-1.08.23-1.14c.42-.06,1.76-.05,2.18,0,.1.01.19.04.28.1.73.77,1.45,1.56,2.22,2.3.22.21.48.35.72.61.17.19.28.41.48.59.25.22,1.14.79,1.45.75.07,0,.78-.42.88-.49.92-.73,1.78-1.59,2.64-2.41.33-.32,1.32-1.49,1.7-1.49h2.28Z"/>
    </g>
  </g>
</svg>