<?xml version="1.0" encoding="utf-8"?>
<!-- Generator: Adobe Illustrator 28.4.1, SVG Export Plug-In . SVG Version: 6.00 Build 0)  -->
<svg version="1.1" id="Layer_2_00000160179737078725774030000011584496325908512143_"
	 xmlns="http://www.w3.org/2000/svg" xmlns:xlink="http://www.w3.org/1999/xlink" x="0px" y="0px" viewBox="0 0 300 300"
	 style="enable-background:new 0 0 300 300;" xml:space="preserve">
<style type="text/css">
	.st0{fill:#211C54;}
	.st1{fill:#EDEDEE;}
	.st2{fill:none;stroke:#EDEDEE;stroke-width:10;stroke-linejoin:bevel;}
	.st3{fill:none;stroke:#EDEDEE;stroke-width:10;stroke-linejoin:round;}
</style>
<g>
	<path class="st0" d="M145.2,292.1c-0.5,0-1-0.1-1.5-0.2l-80.7-26.2c-1-0.3-1.8-0.9-2.4-1.8l-49.9-68.6c-0.6-0.8-0.9-1.8-0.9-2.8
		v-84.9c0-1,0.3-2,0.9-2.8l49.9-68.6c0.6-0.8,1.4-1.4,2.4-1.8l80.7-26.2c0.5-0.2,1-0.2,1.5-0.2c0.5,0,1,0.1,1.5,0.2l80.7,26.2
		c1,0.3,1.8,0.9,2.4,1.8l49.9,68.6c0.6,0.8,0.9,1.8,0.9,2.8v84.9c0,1-0.3,2-0.9,2.8l-49.9,68.6c-0.6,0.8-1.4,1.4-2.4,1.8l-80.7,26.2
		C146.2,292.1,145.7,292.1,145.2,292.1L145.2,292.1z"/>
	<path class="st1" d="M145.2,17.6l77.8,25.3l48.1,66.2v81.8l-48.1,66.2l-77.8,25.3l-77.8-25.3l-48.1-66.2v-81.8l48.1-66.2
		L145.2,17.6 M145.2,3c-1,0-2,0.2-3,0.5L61.6,29.7c-1.9,0.6-3.6,1.9-4.8,3.5L6.8,101.9c-1.2,1.7-1.8,3.6-1.8,5.7v84.9
		c0,2,0.6,4,1.8,5.7l49.9,68.6c1.2,1.7,2.9,2.9,4.8,3.5l80.7,26.2c1,0.3,2,0.5,3,0.5s2-0.2,3-0.5l80.7-26.2c1.9-0.6,3.6-1.9,4.8-3.5
		l49.9-68.6c1.2-1.7,1.8-3.6,1.8-5.7v-84.9c0-2-0.6-4-1.8-5.7l-49.9-68.6c-1.2-1.7-2.9-2.9-4.8-3.5L148.2,3.5
		C147.3,3.2,146.2,3,145.2,3L145.2,3z"/>
	<polygon class="st2" points="145.2,49.2 49.9,118.5 86.3,230.6 204.2,230.6 240.6,118.5 	"/>
	<line class="st3" x1="240.6" y1="118.5" x2="275.8" y2="107.6"/>
	<line class="st3" x1="204.2" y1="230.6" x2="225.9" y2="261.1"/>
	<line class="st3" x1="86.3" y1="230.6" x2="64.5" y2="261.1"/>
	<line class="st3" x1="49.9" y1="118.5" x2="14.7" y2="107.6"/>
	<line class="st3" x1="145.2" y1="49.2" x2="145.2" y2="12.7"/>
</g>
</svg>
