<?xml version="1.0" encoding="UTF-8"?>
<svg id="Layer_2" data-name="Layer 2" xmlns="http://www.w3.org/2000/svg" xmlns:xlink="http://www.w3.org/1999/xlink" viewBox="0 0 287.72 24.72">
  <defs>
    <style>
      .cls-1 {
        fill: url(#linear-gradient);
      }
    </style>
    <linearGradient id="linear-gradient" x1="0" y1="12.36" x2="287.72" y2="12.36" gradientUnits="userSpaceOnUse">
      <stop offset="0" stop-color="#d67f5a"/>
      <stop offset=".73" stop-color="#e5ca7d"/>
    </linearGradient>
  </defs>
  <g id="Layer_1-2" data-name="Layer 1">
    <path class="cls-1" d="M44.18.95c-.73.19-1.89-.13-2.35-.12l-5.94.12c-1.76.04-3.71-.13-5.57-.05-1.6.07-3.16.37-4.45.43-3.3.15-6.83.18-10.15.21-.25,0-.49.01-.74.02-.99.19-2.74.8-3.64.89-.5.05-2.18.08-2.78.09-.47.56-1.64.54-2.47.56.02.11-.03.24,0,.34.66,0,1.42-.21,1.24.31.53.02,1.19,0,1.73-.04,1.36.38,2.9.27,4.33.25l2.11.29c-1.36.24-2.6-.01-4.05.11-.5.04-4.23.61-4.35.74-.07.08.25.38.21.56-.15.62-2.56,1.18-2.64,1.43,2.44,1.9-2.79.58-3.56,1.5-.22.27-.15,1.88-.02,2.24.22.62,1.71,1.11,1.67,1.48-.02.18-.45.65-.56.97-.34.92-.53,2.26-.91,3.05-.29.61-1.63.97-1.23,1.87.26.6,1.5.73,1.78,1.14.18.26.01.72.29.85,1.19.58,4.53.24,5.81.95-1.32.76-6.74-.32-6.92,1.16-.03.22.06.34.25.5,1.11.97,12.05,1.56,14.29,1.62,16.78.45,34.52-.02,51.36-.06.9,0,1.82-.05,2.72-.06,5.53-.01,11.29,0,16.83-.01,3.76-.01,7.51-.09,11.27-.07,10.74.05,21.84.11,32.79,0,2.77-.03,5.52.03,8.3,0,.42,0,1.1-.13,1.36.14.06-.1.43-.25.49-.35.52.63,2.06.19,2.98.27.03-.05-.03-.12,0-.17,2.79.46,5.78.25,8.67.32l.24-.17c.96.32,2.36.08,3.47.1.08,0,.17,0,.25,0,3.54,0,7.27.01,10.89-.06.08,0,.16,0,.25,0,1.07-.02,2.15-.04,3.22-.07,2.6-.06,5.21-.26,7.78-.34,2.35-.07,5.15.22,7.32.02,1.15-.11,1.86-.4,3.46-.41,3.52-.01,7.04-.1,10.53-.04,5.97.09,14.87-.14,20.67.4,1.15.11.83.14,2.23.12,1.4-.02,3,.06,4.46.08.98,0,1.99-.08,2.97-.06.08,0,9.84.66,12.14.42.23-.02,2.35.13,5.7.22,3.78.11,7.13.15,10.8-.17,1.88-.17,4.75.14,6.9-.03,1.22-.09,4.74-.7,5.55-1.29.02-.01.24-.32.24-.34.03-.1-.6-.59.41-.82,2.07-.46,3.73.65,4.49-1.64.03-.09-.03-.23,0-.34.05-.28.26-.55.23-.85,2.63.03,7.02.05,9.53-.19.91-.09,2.36-.42.98-.88-1.69-.55-4.26,0-5.85-.96.67-.32,3.52-.16,3.7-.59.16-.39-.77-.75-.76-1.16.01-.58,1.93-1.08,1.37-2.68-.22-.63-1.3-.94-.07-1.61.33-.18,1.06-.27,1.26-.42.22-.17.21-.54.43-.8.12-.14.61-.16.61-.28,0-.23-.42-.45-.47-.68-.07-.37.64-.94.38-1.39-1.33-.29-5.8.41-6.42-.64-.11-.43,1.11-.35,1.22-.7.13-.41-1.25-.71-1.28-.83-.08-.32.49-.73.49-1.08.08,0,.17,0,.25,0l.98-.36c-.05-.52-.55-1-.03-1.51.24,0,1.35-.16,1.73-.2.22-.03,2.1-.19,1.48-.53-.22-.12-2.51-.09-3.04-.15-1.3-.15-2.58-.63-3.82-.7-1.75-.09-3.46.39-5.15.43-2.17.06-4.53-.09-6.82-.04-7.16.17-14.79.22-22.03.12-1.63-.02-3.31-.04-4.95-.07-3.28-.06-6.85-.4-10.16-.46-.57-.01-1.16.05-1.73.04-.25,0-.5.02-.74.02-7.93-.15-15.89-.34-23.78-.52-1.06-.02-2.15.09-3.22.07-1.99-.05-4.02-.36-6.2-.38-5.18-.03-10.48-.01-15.6-.01-7.21,0-14.44.21-21.65.27-9.48.09-19.59.59-28.98.45-.93-.01-1.86-.25-2.84-.12-.15.07-.36.11-.49.18l-3.47-.1c-12.68.24-25.19.61-37.86.62-2.89,0-5.79.02-8.66.01-.16,0-.33.01-.49.01-.41,0-.83.03-1.24.03-2.46,0-4.96-.16-7.43-.18-5.52-.05-10.97-.06-16.47-.16l-5.07-.07Z"/>
  </g>
</svg>